<svg width="261" height="174" viewBox="0 0 261 174" fill="none" xmlns="http://www.w3.org/2000/svg">
<path d="M100.736 45.2393H83.8052V49.7184H100.736V45.2393Z" fill="#F5F5F5"/>
<path d="M93.5769 54.4367C93.5752 54.4349 93.5734 54.4074 93.5717 54.3552C93.5703 54.2954 93.5686 54.2199 93.5661 54.1256C93.563 53.9147 93.5588 53.621 93.5536 53.2441C93.5466 52.4708 93.5369 51.3593 93.5247 49.9576L93.5773 50.0101C89.7113 50.0178 83.5632 50.0303 76.6471 50.0439C76.6853 50.0056 76.5601 50.1298 76.7323 49.9579V49.959V49.9614V49.9659V49.975V49.9931V50.0293V50.1013V50.2454V50.5325C76.7323 50.7235 76.7323 50.9139 76.7323 51.1039C76.7323 51.4835 76.732 51.8604 76.732 52.2342C76.7316 52.9817 76.7309 53.717 76.7306 54.4374L76.6464 54.3532C81.4676 54.3685 85.6864 54.382 88.7119 54.3914C90.2191 54.4015 91.4284 54.4099 92.2733 54.4154C92.6843 54.4203 93.0058 54.4238 93.2362 54.4266C93.3399 54.429 93.4228 54.4308 93.4882 54.4322C93.5449 54.4332 93.5748 54.4349 93.5769 54.4367C93.5787 54.4384 93.5522 54.4402 93.4986 54.4422C93.436 54.4436 93.3566 54.4454 93.2571 54.4475C93.0312 54.4502 92.7153 54.4537 92.3123 54.4586C91.4722 54.4642 90.2692 54.4725 88.7703 54.4826C85.7299 54.4924 81.4905 54.5056 76.646 54.5209L76.5618 54.5212V54.4367C76.5615 53.7163 76.5608 52.981 76.5604 52.2335C76.5604 51.8597 76.5601 51.4828 76.5601 51.1032C76.5601 50.9135 76.5601 50.7228 76.5601 50.5318V50.2447V50.1006V50.0286V49.9924V49.9743V49.9652V49.9607V49.9583V49.9572C76.7327 49.7846 76.6084 49.9092 76.6474 49.8709C83.5636 49.8848 89.7117 49.897 93.5776 49.9047H93.6305L93.6302 49.9572C93.6176 51.3722 93.6079 52.4941 93.6013 53.275C93.5957 53.6467 93.5915 53.9369 93.5884 54.1447C93.5863 54.2352 93.5842 54.3076 93.5828 54.3653C93.5804 54.4144 93.5787 54.4384 93.5769 54.4367Z" fill="#E0E0E0"/>
<path d="M38.4841 42.3981C38.4824 42.3964 38.4807 42.3689 38.4789 42.3167C38.4775 42.2568 38.4758 42.1813 38.4733 42.087C38.4702 41.8761 38.466 41.5824 38.4605 41.2055C38.4535 40.4323 38.4438 39.3208 38.4316 37.919L38.4841 37.9716C34.6182 37.9792 28.4701 37.9914 21.5539 38.0053C21.5919 37.967 21.4669 38.0913 21.6392 37.919V37.9201V37.9225V37.927V37.9361V37.9542V37.9904V38.0624V38.2065V38.4936C21.6392 38.6846 21.6392 38.8753 21.6392 39.065C21.6392 39.4447 21.6388 39.8215 21.6388 40.1953C21.6385 40.9428 21.6378 41.6781 21.6375 42.3985L21.5532 42.3143C26.3744 42.3296 30.5932 42.3431 33.6187 42.3525C35.1259 42.3626 36.3352 42.371 37.1802 42.3765C37.5912 42.3814 37.9127 42.3849 38.1431 42.3877C38.2468 42.3898 38.3296 42.3915 38.3951 42.3933C38.4521 42.3943 38.482 42.396 38.4841 42.3981C38.4859 42.3999 38.4594 42.4016 38.4058 42.4037C38.3432 42.4051 38.2639 42.4068 38.1643 42.4093C37.9385 42.412 37.6228 42.4155 37.2195 42.4204C36.3794 42.426 35.1764 42.4343 33.6776 42.4444C30.6371 42.4542 26.3977 42.4674 21.5532 42.4827L21.469 42.483V42.3985C21.4687 41.6781 21.468 40.9428 21.4676 40.1953C21.4676 39.8215 21.4673 39.4447 21.4673 39.065C21.4673 38.8753 21.4673 38.6846 21.4673 38.4936V38.2065V38.0624V37.9904V37.9542V37.9361V37.927V37.9225V37.9201V37.919C21.6399 37.7464 21.5157 37.8713 21.5546 37.8327C28.4708 37.8466 34.6189 37.8588 38.4848 37.8665H38.5377L38.5374 37.919C38.5249 39.334 38.5151 40.4559 38.5085 41.2368C38.5029 41.6085 38.4988 41.8984 38.4956 42.1065C38.4932 42.197 38.4914 42.2694 38.4901 42.3271C38.4876 42.3759 38.4859 42.3999 38.4841 42.3981Z" fill="#E0E0E0"/>
<path d="M40.7794 37.9191C40.7774 37.917 40.7753 37.8881 40.7728 37.8338C40.7711 37.7694 40.7687 37.6915 40.7662 37.5965C40.7624 37.3762 40.7572 37.0766 40.7509 36.6983C40.7429 35.9129 40.7314 34.8038 40.7175 33.44L40.7794 33.5019C38.144 33.5082 34.559 33.5169 30.6074 33.5263C30.5298 33.6032 30.7115 33.4212 30.693 33.4403V33.4414V33.4438V33.4483V33.4577V33.4762V33.5131V33.5868V33.7337V34.0264C30.693 34.2212 30.693 34.4147 30.6927 34.6072C30.6923 34.9921 30.6923 35.3724 30.692 35.7472C30.6909 36.4965 30.6899 37.2231 30.6888 37.9191L30.6067 37.837C33.5435 37.8526 36.0717 37.8662 37.8837 37.8759C38.7774 37.8857 39.4936 37.893 40.0034 37.8986C40.2414 37.9027 40.4311 37.9062 40.5752 37.909C40.7064 37.9121 40.7763 37.9156 40.7794 37.9191C40.7829 37.9226 40.7196 37.9257 40.5947 37.9292C40.4551 37.9316 40.271 37.9351 40.0399 37.9396C39.5347 37.9452 38.8247 37.9528 37.9391 37.9622C36.1131 37.972 33.5658 37.9856 30.6067 38.0012L30.5246 38.0016V37.9191C30.5235 37.2231 30.5225 36.4965 30.5215 35.7472C30.5211 35.3724 30.5208 34.9921 30.5208 34.6072C30.5208 34.4147 30.5208 34.2209 30.5204 34.0264V33.7337V33.5868V33.5131V33.4762V33.4577V33.4483V33.4438V33.4414V33.4403C30.5016 33.4584 30.684 33.2764 30.6074 33.3537C34.559 33.3631 38.144 33.3718 40.7794 33.378L40.8421 33.3784L40.8414 33.4403C40.8275 34.8201 40.816 35.9421 40.808 36.7366C40.8014 37.1089 40.7962 37.4037 40.7927 37.6209C40.7881 37.8203 40.784 37.9233 40.7794 37.9191Z" fill="#E0E0E0"/>
<path d="M238.583 25.5511C238.582 25.5493 238.58 25.5218 238.578 25.4696C238.577 25.4098 238.575 25.3343 238.572 25.24C238.569 25.0291 238.565 24.7354 238.56 24.3585C238.553 23.5852 238.543 22.4737 238.531 21.072L238.583 21.1245C234.717 21.1322 228.569 21.1443 221.653 21.1583C221.691 21.12 221.566 21.2442 221.738 21.072V21.0754V21.08V21.089V21.1071V21.1433V21.2153V21.3594V21.6465C221.738 21.8376 221.738 22.0283 221.738 22.2179C221.738 22.5976 221.738 22.9745 221.738 23.3482C221.738 24.0957 221.737 24.8311 221.737 25.5514L221.652 25.4672C226.474 25.4825 230.692 25.4961 233.718 25.5055C235.225 25.5156 236.434 25.5239 237.279 25.5295C237.69 25.5344 238.012 25.5378 238.242 25.5406C238.346 25.5427 238.429 25.5445 238.494 25.5458C238.551 25.5472 238.582 25.549 238.583 25.5511C238.585 25.5528 238.559 25.5546 238.505 25.5566C238.442 25.558 238.363 25.5598 238.263 25.5622C238.038 25.565 237.722 25.5685 237.319 25.5733C236.479 25.5789 235.276 25.5873 233.777 25.5974C230.736 25.6071 226.497 25.6203 221.652 25.6356L221.568 25.636V25.5514C221.568 24.8311 221.567 24.0957 221.567 23.3482C221.567 22.9745 221.566 22.5976 221.566 22.2179C221.566 22.0283 221.566 21.8376 221.566 21.6465V21.3594V21.2153V21.1433V21.1071V21.089V21.08V21.0754V21.073C221.739 20.9004 221.615 21.0239 221.654 20.9857C228.57 20.9996 234.718 21.0118 238.584 21.0194H238.637V21.072C238.624 22.4869 238.614 23.6092 238.608 24.3898C238.602 24.7615 238.598 25.0517 238.595 25.2594C238.592 25.3499 238.591 25.4223 238.589 25.4801C238.587 25.5288 238.585 25.5528 238.583 25.5511Z" fill="#E0E0E0"/>
<path d="M240.879 21.0712C240.876 21.0691 240.874 21.0403 240.872 20.986C240.87 20.9216 240.868 20.8436 240.865 20.7486C240.862 20.5283 240.856 20.2287 240.85 19.8504C240.842 19.065 240.831 17.9559 240.817 16.5921L240.879 16.6541C238.243 16.6603 234.658 16.669 230.707 16.6784C230.629 16.7553 230.811 16.5733 230.792 16.5925V16.5959V16.6005V16.6095V16.628V16.6648V16.7383V16.8851V17.1778C230.792 17.3723 230.792 17.5662 230.792 17.7586C230.791 18.1435 230.791 18.5239 230.791 18.8987C230.79 19.6479 230.789 20.3745 230.788 21.0705L230.706 20.9884C233.643 21.0041 236.171 21.0176 237.983 21.0274C238.877 21.0371 239.593 21.0444 240.103 21.05C240.341 21.0542 240.53 21.0577 240.674 21.0604C240.805 21.0643 240.875 21.0677 240.879 21.0712C240.882 21.0747 240.819 21.0778 240.694 21.0813C240.554 21.0838 240.37 21.0872 240.139 21.0918C239.634 21.0973 238.924 21.105 238.038 21.1144C236.212 21.1241 233.665 21.1377 230.706 21.1534L230.624 21.1537V21.0712C230.623 20.3752 230.622 19.6486 230.621 18.8994C230.62 18.5246 230.62 18.1442 230.62 17.7593C230.62 17.5669 230.62 17.373 230.62 17.1785V16.8858V16.739V16.6655V16.6287V16.6102V16.6012V16.5966V16.5942C230.601 16.6123 230.783 16.4293 230.707 16.5065C234.658 16.5159 238.243 16.5246 240.879 16.5309H240.941V16.5928C240.927 17.9726 240.915 19.0946 240.907 19.8891C240.9 20.2614 240.895 20.5562 240.892 20.7733C240.887 20.9727 240.883 21.0754 240.879 21.0712Z" fill="#E0E0E0"/>
<path d="M100.683 102.269C100.681 102.267 100.679 102.239 100.678 102.187C100.676 102.127 100.675 102.052 100.672 101.958C100.669 101.747 100.665 101.453 100.659 101.076C100.652 100.303 100.642 99.1909 100.63 97.7895L100.683 97.8421C96.8169 97.8497 90.6688 97.8619 83.7527 97.8758C83.7909 97.8372 83.6657 97.9618 83.8379 97.7895V97.7906V97.7927V97.7972V97.8062V97.8243V97.8605V97.9326V98.0763V98.3634C83.8379 98.5544 83.8379 98.7451 83.8379 98.9348C83.8379 99.3145 83.8376 99.6913 83.8376 100.065C83.8372 100.813 83.8365 101.548 83.8362 102.268L83.752 102.184C88.5732 102.199 92.792 102.213 95.8175 102.222C97.3247 102.232 98.534 102.241 99.3789 102.246C99.7899 102.251 100.111 102.255 100.342 102.258C100.446 102.26 100.528 102.262 100.594 102.263C100.651 102.265 100.681 102.267 100.683 102.269C100.685 102.27 100.658 102.272 100.605 102.274C100.542 102.276 100.463 102.277 100.363 102.28C100.137 102.283 99.8216 102.286 99.4182 102.291C98.5782 102.297 97.3751 102.305 95.8763 102.315C92.8358 102.325 88.5968 102.338 83.752 102.353L83.6677 102.354V102.269C83.6674 101.549 83.6667 100.813 83.6664 100.066C83.6664 99.692 83.666 99.3152 83.666 98.9355C83.666 98.7458 83.666 98.5551 83.666 98.3641V98.077V97.9332V97.8612V97.825V97.8069V97.7979V97.7934V97.7913V97.7902C83.8386 97.6176 83.7144 97.7422 83.7534 97.7039C90.6695 97.7178 96.8176 97.73 100.684 97.7377H100.736V97.7902C100.724 99.2052 100.714 100.327 100.707 101.108C100.702 101.48 100.697 101.77 100.694 101.978C100.692 102.068 100.69 102.141 100.689 102.198C100.686 102.246 100.685 102.27 100.683 102.269Z" fill="#E0E0E0"/>
<path d="M102.979 97.79C102.977 97.7879 102.974 97.759 102.972 97.7047C102.971 97.6403 102.968 97.5624 102.966 97.4674C102.962 97.2471 102.957 96.9475 102.95 96.5692C102.942 95.7838 102.931 94.6747 102.917 93.3109L102.979 93.3728C100.344 93.3791 96.7585 93.3878 92.807 93.3972C92.7294 93.4741 92.911 93.2921 92.8926 93.3112V93.3123V93.3147V93.3192V93.3283V93.3467V93.3836V93.457V93.6039V93.8966C92.8926 94.0911 92.8926 94.2849 92.8922 94.4774C92.8919 94.8623 92.8919 95.2426 92.8915 95.6174C92.8905 96.3667 92.8894 97.0933 92.8884 97.7893L92.8063 97.7071C95.7431 97.7228 98.2713 97.7364 100.083 97.7461C100.977 97.7555 101.693 97.7632 102.203 97.7687C102.441 97.7729 102.631 97.7764 102.775 97.7792C102.905 97.7834 102.975 97.7868 102.979 97.79C102.982 97.7935 102.919 97.7966 102.794 97.8001C102.654 97.8025 102.47 97.806 102.239 97.8105C101.734 97.8161 101.024 97.8237 100.138 97.8331C98.3123 97.8429 95.765 97.8564 92.8059 97.8721L92.7238 97.8725V97.79C92.7228 97.094 92.7217 96.3674 92.7207 95.6181C92.7203 95.2433 92.7203 94.8629 92.72 94.4781C92.72 94.2856 92.72 94.0918 92.7196 93.8972V93.6046V93.4577V93.3843V93.3474V93.329V93.3199V93.3154V93.313V93.3119C92.7008 93.33 92.8832 93.148 92.8066 93.2253C96.7582 93.2347 100.343 93.2434 102.979 93.2496H103.041V93.3116C103.027 94.6914 103.015 95.8133 103.007 96.6078C103.001 96.9802 102.996 97.2749 102.992 97.4921C102.987 97.6915 102.983 97.7945 102.979 97.79Z" fill="#E0E0E0"/>
<path d="M72.4446 71.6188C72.4428 71.6171 72.4411 71.5896 72.4394 71.5374C72.438 71.4775 72.4362 71.402 72.4338 71.3077C72.4307 71.0968 72.4265 70.8031 72.4209 70.4262C72.414 69.653 72.4042 68.5415 72.392 67.1397L72.4446 67.1923C68.5787 67.1999 62.4305 67.2121 55.5144 67.226C55.5527 67.1877 55.4274 67.312 55.5996 67.1397V67.1408V67.1432V67.1477V67.1568V67.1749V67.2111V67.2831V67.4272V67.7143C55.5996 67.9053 55.5996 68.096 55.5996 68.2857C55.5996 68.6654 55.5993 69.0422 55.5993 69.416C55.599 70.1635 55.5983 70.8988 55.5979 71.6192L55.5133 71.535C60.3345 71.5503 64.5533 71.5638 67.5789 71.5732C69.086 71.5833 70.2953 71.5917 71.1403 71.5972C71.5513 71.6021 71.8728 71.6056 72.1032 71.6084C72.2069 71.6108 72.2897 71.6126 72.3552 71.614C72.4126 71.6153 72.4425 71.6171 72.4446 71.6188C72.4463 71.6206 72.4199 71.6223 72.3663 71.6244C72.3036 71.6258 72.224 71.6275 72.1248 71.63C71.8989 71.6327 71.5829 71.6362 71.18 71.6411C70.3399 71.6467 69.1368 71.655 67.638 71.6651C64.5975 71.6749 60.3582 71.6881 55.5137 71.7034L55.4295 71.7037V71.6192C55.4291 70.8988 55.4284 70.1638 55.4281 69.416C55.4281 69.0422 55.4277 68.6654 55.4277 68.2857C55.4277 68.0957 55.4277 67.9053 55.4277 67.7143V67.4272V67.2831V67.2111V67.1749V67.1568V67.1477V67.1432V67.1408V67.1397C55.6003 66.9671 55.4761 67.092 55.5151 67.0534C62.4312 67.0673 68.5794 67.0795 72.4453 67.0872H72.4982L72.4978 67.1397C72.4857 68.5547 72.4756 69.6766 72.4689 70.4576C72.4634 70.8292 72.4592 71.1194 72.4561 71.3272C72.4536 71.4177 72.4519 71.4901 72.4505 71.5478C72.4481 71.5966 72.4463 71.6206 72.4446 71.6188Z" fill="#E0E0E0"/>
<path d="M35.5064 93.0479H18.5752V97.527H35.5064V93.0479Z" fill="#E0E0E0"/>
<path d="M28.3469 102.244C28.3469 102.244 28.3435 102.215 28.3417 102.163C28.3403 102.103 28.3386 102.027 28.3361 101.933C28.333 101.722 28.3288 101.429 28.3236 101.052C28.3167 100.278 28.3069 99.1669 28.2947 97.7652L28.3473 97.8177C24.4813 97.8254 18.3332 97.8376 11.4171 97.8515C11.4554 97.8132 11.3301 97.9374 11.5023 97.7655V97.7666V97.769V97.7735V97.7826V97.8007V97.8369V97.9089V98.053V98.3401C11.5023 98.5311 11.5023 98.7215 11.5023 98.9115C11.5023 99.2912 11.502 99.668 11.502 100.042C11.5016 100.789 11.5009 101.525 11.5006 102.245L11.4164 102.161C16.2376 102.176 20.4564 102.189 23.4819 102.199C24.9891 102.209 26.1984 102.217 27.0433 102.223C27.4543 102.228 27.7759 102.231 28.0062 102.234C28.1099 102.237 28.1928 102.238 28.2582 102.24C28.3149 102.241 28.3469 102.244 28.3469 102.244C28.3487 102.246 28.3222 102.248 28.2686 102.25C28.206 102.251 28.1266 102.253 28.0271 102.255C27.8013 102.258 27.4853 102.261 27.0823 102.266C26.2422 102.272 25.0392 102.28 23.5404 102.29C20.4999 102.3 16.2605 102.313 11.416 102.329H11.3318V102.244C11.3315 101.524 11.3308 100.789 11.3304 100.041C11.3304 99.6674 11.3301 99.2905 11.3301 98.9108C11.3301 98.7211 11.3301 98.5304 11.3301 98.3394V98.0523V97.9082V97.8362V97.8V97.7819V97.7728V97.7683V97.7659V97.7648C11.5027 97.5922 11.3784 97.7168 11.4174 97.6785C18.3336 97.6925 24.4817 97.7046 28.3476 97.7123H28.4005L28.4002 97.7648C28.3876 99.1798 28.3779 100.302 28.3713 101.083C28.3657 101.454 28.3615 101.745 28.3584 101.952C28.3563 102.043 28.3542 102.115 28.3528 102.173C28.3504 102.222 28.3487 102.246 28.3469 102.244Z" fill="#E0E0E0"/>
<path d="M186.241 23.3318C186.239 23.3301 186.237 23.3026 186.236 23.2504C186.234 23.1905 186.233 23.115 186.23 23.0207C186.227 22.8098 186.223 22.5161 186.217 22.1392C186.21 21.366 186.201 20.2545 186.188 18.8527L186.241 18.9053C182.375 18.9129 176.227 18.9251 169.311 18.939C169.349 18.9004 169.224 19.025 169.396 18.8527V18.8538V18.8562V18.8607V18.8698V18.8879V18.9241V18.9961V19.1398V19.4269C169.396 19.618 169.396 19.8087 169.396 19.9983C169.396 20.378 169.396 20.7549 169.396 21.1286C169.395 21.8761 169.395 22.6115 169.394 23.3318L169.31 23.2476C174.131 23.2629 178.35 23.2765 181.376 23.2859C182.883 23.296 184.092 23.3043 184.937 23.3099C185.348 23.3148 185.67 23.3183 185.9 23.321C186.004 23.3231 186.086 23.3249 186.152 23.3263C186.209 23.328 186.239 23.3301 186.241 23.3318C186.243 23.3336 186.216 23.3357 186.163 23.3374C186.1 23.3388 186.021 23.3405 185.921 23.343C185.695 23.3458 185.38 23.3492 184.976 23.3541C184.136 23.3597 182.933 23.368 181.434 23.3781C178.394 23.3879 174.155 23.4011 169.31 23.4164L169.226 23.4167V23.3322C169.226 22.6118 169.225 21.8765 169.224 21.129C169.224 20.7552 169.224 20.3784 169.224 19.9987C169.224 19.809 169.224 19.6183 169.224 19.4273V19.1402V18.9961V18.9241V18.8879V18.8698V18.8607V18.8562V18.8538V18.8527C169.397 18.6801 169.272 18.8047 169.311 18.7664C176.228 18.7803 182.376 18.7925 186.242 18.8002H186.295L186.294 18.8527C186.282 20.2677 186.272 21.39 186.265 22.1706C186.26 22.5422 186.256 22.8325 186.252 23.0402C186.25 23.1307 186.248 23.2031 186.247 23.2608C186.244 23.3096 186.243 23.3336 186.241 23.3318Z" fill="#E0E0E0"/>
<path d="M198.331 14.306C198.329 14.3042 198.327 14.2767 198.326 14.2245C198.324 14.1647 198.322 14.0891 198.32 13.9948C198.317 13.784 198.313 13.4902 198.307 13.1134C198.3 12.3401 198.29 11.2286 198.278 9.82685L198.331 9.87939C194.465 9.88705 188.317 9.89923 181.401 9.91315C181.439 9.87452 181.314 9.99911 181.486 9.82685V9.82789V9.83033V9.83485V9.8439V9.86199V9.89819V9.97022V10.1139V10.401C181.486 10.5921 181.486 10.7828 181.486 10.9725C181.486 11.3521 181.486 11.729 181.486 12.1028C181.485 12.8503 181.484 13.5856 181.484 14.306L181.4 14.2217C186.221 14.237 190.44 14.2506 193.465 14.26C194.973 14.2701 196.182 14.2785 197.027 14.284C197.438 14.2889 197.759 14.2924 197.99 14.2952C198.093 14.2973 198.176 14.2993 198.242 14.3004C198.299 14.3025 198.329 14.3042 198.331 14.306C198.333 14.3077 198.306 14.3098 198.253 14.3115C198.19 14.3129 198.111 14.3147 198.011 14.3171C197.785 14.3199 197.47 14.3234 197.066 14.3282C196.226 14.3338 195.023 14.3421 193.524 14.3522C190.484 14.362 186.244 14.3752 181.4 14.3905L181.316 14.3909V14.3063C181.315 13.5859 181.315 12.8506 181.314 12.1031C181.314 11.7294 181.314 11.3525 181.314 10.9728C181.314 10.7831 181.314 10.5924 181.314 10.4014V10.1143V9.96987V9.89784V9.86199V9.8439V9.83485V9.83033V9.82789V9.82685C181.487 9.65424 181.362 9.77882 181.401 9.74054C188.317 9.75446 194.466 9.76664 198.332 9.7743H198.384V9.82685C198.372 11.2418 198.362 12.3641 198.355 13.1447C198.35 13.5163 198.345 13.8066 198.342 14.0143C198.34 14.1048 198.338 14.1772 198.337 14.235C198.334 14.2837 198.333 14.3077 198.331 14.306Z" fill="#E0E0E0"/>
<path d="M111.673 28.5852C111.671 28.5835 111.67 28.556 111.668 28.5038C111.666 28.444 111.665 28.3684 111.662 28.2741C111.659 28.0633 111.655 27.7695 111.649 27.3927C111.642 26.6194 111.633 25.5079 111.621 24.1061L111.673 24.1587C107.807 24.1663 101.659 24.1789 94.743 24.1924C94.7813 24.1542 94.656 24.2784 94.8283 24.1061V24.1072V24.1096V24.1141V24.1232V24.1413V24.1775V24.2495V24.3936V24.6807C94.8283 24.8717 94.8283 25.0624 94.8283 25.2521C94.8283 25.6318 94.8279 26.0087 94.8279 26.3824C94.8276 27.1299 94.8269 27.8652 94.8265 28.5856L94.7423 28.5014C99.5635 28.5167 103.782 28.5303 106.808 28.5397C108.315 28.5498 109.524 28.5581 110.369 28.5637C110.78 28.5685 111.102 28.572 111.332 28.5748C111.436 28.5772 111.519 28.579 111.584 28.5804C111.641 28.5818 111.671 28.5835 111.673 28.5852C111.675 28.587 111.648 28.5887 111.595 28.5908C111.532 28.5922 111.452 28.594 111.353 28.5964C111.127 28.5992 110.811 28.6027 110.408 28.6075C109.568 28.6131 108.365 28.6214 106.867 28.6315C103.826 28.6413 99.5868 28.6545 94.7423 28.6698L94.6581 28.6702V28.5856C94.6577 27.8652 94.657 27.1299 94.6567 26.3824C94.6567 26.0087 94.6562 25.6318 94.6562 25.2521C94.6562 25.0621 94.6562 24.8717 94.6562 24.6807V24.3936V24.2495V24.1775V24.1413V24.1232V24.1141V24.1096V24.1072V24.1061C94.829 23.9335 94.7047 24.0581 94.7437 24.0198C101.66 24.0338 107.808 24.0459 111.674 24.0536H111.727L111.726 24.1061C111.714 25.5211 111.704 26.6434 111.697 27.424C111.692 27.7956 111.688 28.0859 111.685 28.2936C111.682 28.3841 111.68 28.4565 111.679 28.5143C111.677 28.563 111.675 28.587 111.673 28.5852Z" fill="#E0E0E0"/>
<path d="M76.5769 23.9163C76.5752 23.9146 76.5734 23.8871 76.5717 23.8349C76.5703 23.775 76.5686 23.6995 76.5661 23.6052C76.563 23.3943 76.5588 23.1006 76.5532 22.7237C76.5463 21.9505 76.5365 20.8389 76.5244 19.4372L76.5769 19.4897C72.711 19.4974 66.5629 19.5096 59.6467 19.5235C59.685 19.4852 59.5597 19.6095 59.732 19.4372V19.4407V19.4452V19.4542V19.4723V19.5085V19.5806V19.7246V20.0117C59.732 20.2028 59.732 20.3935 59.732 20.5832C59.732 20.9628 59.7316 21.3397 59.7316 21.7135C59.7313 22.461 59.7306 23.1963 59.7302 23.9167L59.6457 23.8324C64.4669 23.8477 68.6857 23.8613 71.7112 23.8707C73.2184 23.8808 74.4277 23.8892 75.2726 23.8947C75.6836 23.8996 76.0055 23.9031 76.2355 23.9059C76.3392 23.9083 76.422 23.91 76.4875 23.9114C76.5449 23.9128 76.5752 23.9146 76.5769 23.9163C76.5786 23.918 76.5522 23.9198 76.4986 23.9219C76.436 23.9233 76.3563 23.925 76.2571 23.9274C76.0312 23.9302 75.7153 23.9337 75.3123 23.9386C74.4722 23.9441 73.2692 23.9525 71.7703 23.9626C68.7299 23.9723 64.4905 23.9856 59.646 24.0009L59.5618 24.0012V23.9167C59.5615 23.1963 59.5608 22.4613 59.5604 21.7135C59.5604 21.3397 59.5601 20.9628 59.5601 20.5832C59.5601 20.3935 59.5601 20.2028 59.5601 20.0117V19.7246V19.5806V19.5085V19.4723V19.4542V19.4452V19.4407V19.4382C59.7327 19.2656 59.6084 19.3892 59.6474 19.3509C66.5636 19.3648 72.7117 19.377 76.5776 19.3846H76.6305L76.6302 19.4372C76.618 20.8522 76.6079 21.9745 76.6013 22.755C76.5957 23.1267 76.5915 23.4169 76.5884 23.6247C76.586 23.7152 76.5842 23.7875 76.5828 23.8453C76.5804 23.894 76.5786 23.918 76.5769 23.9163Z" fill="#E0E0E0"/>
<path d="M58.6077 80.7453C58.6059 80.7436 58.6042 80.7161 58.6024 80.6639C58.6011 80.604 58.5993 80.5285 58.5969 80.4342C58.5938 80.2233 58.5896 79.9296 58.584 79.5527C58.577 78.7794 58.5673 77.6679 58.5551 76.2662L58.6077 76.3187C54.7417 76.3264 48.5936 76.3386 41.6775 76.3525C41.7158 76.3142 41.5905 76.4384 41.7627 76.2662V76.2697V76.2742V76.2832V76.3013V76.3375V76.4096V76.5536V76.8407C41.7627 77.0318 41.7627 77.2225 41.7627 77.4121C41.7627 77.7918 41.7624 78.1687 41.7624 78.5425C41.762 79.29 41.7613 80.0253 41.761 80.7456L41.6764 80.6614C46.4976 80.6767 50.7164 80.6903 53.7419 80.6997C55.2491 80.7098 56.4584 80.7182 57.3034 80.7237C57.7144 80.7286 58.0359 80.7321 58.2663 80.7349C58.37 80.7373 58.4528 80.739 58.5182 80.7404C58.5757 80.7418 58.6059 80.7436 58.6077 80.7453C58.6094 80.747 58.583 80.7488 58.5294 80.7509C58.4667 80.7523 58.3874 80.754 58.2879 80.7564C58.062 80.7592 57.746 80.7627 57.343 80.7676C56.503 80.7731 55.2999 80.7815 53.8011 80.7916C50.7606 80.8013 46.5213 80.8145 41.6768 80.8299L41.5926 80.8302V80.7456C41.5922 80.0253 41.5915 79.2903 41.5912 78.5425C41.5912 78.1687 41.5908 77.7918 41.5908 77.4121C41.5908 77.2221 41.5908 77.0318 41.5908 76.8407V76.5536V76.4096V76.3375V76.3013V76.2832V76.2742V76.2697V76.2672C41.7634 76.0946 41.6392 76.2185 41.6782 76.1799C48.5943 76.1938 54.7424 76.206 58.6084 76.2136H58.6613L58.6609 76.2662C58.6484 77.6812 58.6386 78.8031 58.632 79.584C58.6265 79.9557 58.6223 80.2459 58.6192 80.4537C58.6167 80.5441 58.615 80.6165 58.6136 80.6743C58.6111 80.723 58.6094 80.747 58.6077 80.7453Z" fill="#E0E0E0"/>
<path d="M222.421 25.752H108.228V139.945H222.421V25.752Z" fill="#FFE4AF"/>
<path d="M222.558 133.835C222.558 133.885 197.057 133.925 165.607 133.925C134.146 133.925 108.65 133.884 108.65 133.835C108.65 133.785 134.146 133.744 165.607 133.744C197.057 133.744 222.558 133.785 222.558 133.835Z" fill="#263238"/>
<path d="M222.558 127.507C222.558 127.557 197.057 127.597 165.607 127.597C134.146 127.597 108.65 127.556 108.65 127.507C108.65 127.457 134.146 127.416 165.607 127.416C197.057 127.416 222.558 127.456 222.558 127.507Z" fill="#263238"/>
<path d="M222.558 121.178C222.558 121.228 197.057 121.269 165.607 121.269C134.146 121.269 108.65 121.228 108.65 121.178C108.65 121.128 134.146 121.088 165.607 121.088C197.057 121.088 222.558 121.128 222.558 121.178Z" fill="#263238"/>
<path d="M222.558 114.85C222.558 114.9 197.057 114.94 165.607 114.94C134.146 114.94 108.65 114.9 108.65 114.85C108.65 114.8 134.146 114.759 165.607 114.759C197.057 114.759 222.558 114.8 222.558 114.85Z" fill="#263238"/>
<path d="M222.558 108.522C222.558 108.572 197.057 108.612 165.607 108.612C134.146 108.612 108.65 108.571 108.65 108.522C108.65 108.472 134.146 108.431 165.607 108.431C197.057 108.431 222.558 108.472 222.558 108.522Z" fill="#263238"/>
<path d="M222.558 102.194C222.558 102.244 197.057 102.284 165.607 102.284C134.146 102.284 108.65 102.243 108.65 102.194C108.65 102.144 134.146 102.103 165.607 102.103C197.057 102.103 222.558 102.143 222.558 102.194Z" fill="#263238"/>
<path d="M222.558 95.8654C222.558 95.9155 197.057 95.9559 165.607 95.9559C134.146 95.9559 108.65 95.9151 108.65 95.8654C108.65 95.8156 134.146 95.7749 165.607 95.7749C197.057 95.7749 222.558 95.8156 222.558 95.8654Z" fill="#263238"/>
<path d="M222.558 89.5373C222.558 89.5874 197.057 89.6277 165.607 89.6277C134.146 89.6277 108.65 89.587 108.65 89.5373C108.65 89.4875 134.146 89.4468 165.607 89.4468C197.057 89.4468 222.558 89.4871 222.558 89.5373Z" fill="#263238"/>
<path d="M222.558 83.2096C222.558 83.2597 197.057 83.3001 165.607 83.3001C134.146 83.3001 108.65 83.2594 108.65 83.2096C108.65 83.1599 134.146 83.1191 165.607 83.1191C197.057 83.1188 222.558 83.1595 222.558 83.2096Z" fill="#263238"/>
<path d="M222.558 76.8805C222.558 76.9306 197.057 76.971 165.607 76.971C134.146 76.971 108.65 76.9303 108.65 76.8805C108.65 76.8304 134.146 76.79 165.607 76.79C197.057 76.79 222.558 76.8304 222.558 76.8805Z" fill="#263238"/>
<path d="M222.558 70.5529C222.558 70.603 197.057 70.6434 165.607 70.6434C134.146 70.6434 108.65 70.6026 108.65 70.5529C108.65 70.5028 134.146 70.4624 165.607 70.4624C197.057 70.4621 222.558 70.5028 222.558 70.5529Z" fill="#263238"/>
<path d="M222.558 64.2243C222.558 64.2744 197.057 64.3148 165.607 64.3148C134.146 64.3148 108.65 64.274 108.65 64.2243C108.65 64.1745 134.146 64.1338 165.607 64.1338C197.057 64.1338 222.558 64.1745 222.558 64.2243Z" fill="#263238"/>
<path d="M222.194 58.6061C222.194 58.6562 196.693 58.6966 165.243 58.6966C133.782 58.6966 108.287 58.6559 108.287 58.6061C108.287 58.5563 133.782 58.5156 165.243 58.5156C196.693 58.5153 222.194 58.556 222.194 58.6061Z" fill="#FAFAFA"/>
<path d="M222.194 51.8835C222.194 51.9336 196.693 51.9739 165.243 51.9739C133.782 51.9739 108.287 51.9332 108.287 51.8835C108.287 51.8333 133.782 51.793 165.243 51.793C196.693 51.793 222.194 51.8333 222.194 51.8835Z" fill="#FAFAFA"/>
<path d="M222.558 57.8961C222.558 57.9463 197.057 57.9866 165.607 57.9866C134.146 57.9866 108.65 57.9459 108.65 57.8961C108.65 57.8464 134.146 57.8057 165.607 57.8057C197.057 57.8057 222.558 57.846 222.558 57.8961Z" fill="#263238"/>
<path d="M222.558 51.568C222.558 51.6181 197.057 51.6585 165.607 51.6585C134.146 51.6585 108.65 51.6178 108.65 51.568C108.65 51.5183 134.146 51.4775 165.607 51.4775C197.057 51.4775 222.558 51.5183 222.558 51.568Z" fill="#263238"/>
<path d="M222.558 45.2404C222.558 45.2905 197.057 45.3309 165.607 45.3309C134.146 45.3309 108.65 45.2901 108.65 45.2404C108.65 45.1906 134.146 45.1499 165.607 45.1499C197.057 45.1499 222.558 45.1903 222.558 45.2404Z" fill="#263238"/>
<path d="M222.558 38.9123C222.558 38.9624 197.057 39.0027 165.607 39.0027C134.146 39.0027 108.65 38.962 108.65 38.9123C108.65 38.8621 134.146 38.8218 165.607 38.8218C197.057 38.8214 222.558 38.8621 222.558 38.9123Z" fill="#263238"/>
<path d="M222.558 32.5836C222.558 32.6338 197.057 32.6741 165.607 32.6741C134.146 32.6741 108.65 32.6334 108.65 32.5836C108.65 32.5335 134.146 32.4932 165.607 32.4932C197.057 32.4932 222.558 32.5335 222.558 32.5836Z" fill="#263238"/>
<g opacity="0.4">
<path d="M222.558 28.5871H113.48V139.945H108.228V25.752H222.421L222.558 28.5871Z" fill="black"/>
</g>
<path d="M197.162 45.9562C197.162 46.0063 185.225 46.0467 170.504 46.0467C155.777 46.0467 143.842 46.006 143.842 45.9562C143.842 45.9061 155.777 45.8657 170.504 45.8657C185.225 45.8654 197.162 45.9061 197.162 45.9562Z" fill="#FAFAFA"/>
<path d="M174.492 65.4967C174.492 65.5468 162.555 65.5872 147.833 65.5872C133.107 65.5872 121.172 65.5465 121.172 65.4967C121.172 65.447 133.107 65.4062 147.833 65.4062C162.555 65.4062 174.492 65.4466 174.492 65.4967Z" fill="#FAFAFA"/>
<path d="M206.625 39.7692C206.625 39.8193 194.688 39.8597 179.967 39.8597C165.24 39.8597 153.305 39.819 153.305 39.7692C153.305 39.7194 165.24 39.6787 179.967 39.6787C194.688 39.6787 206.625 39.7191 206.625 39.7692Z" fill="#FAFAFA"/>
<path d="M212.449 33.5817C212.449 33.6318 200.512 33.6722 185.79 33.6722C171.064 33.6722 159.129 33.6315 159.129 33.5817C159.129 33.5316 171.064 33.4912 185.79 33.4912C200.512 33.4912 212.449 33.5319 212.449 33.5817Z" fill="#FAFAFA"/>
<path d="M189.033 71.3874C189.033 71.4375 183.236 71.4778 176.086 71.4778C168.934 71.4778 163.138 71.4371 163.138 71.3874C163.138 71.3376 168.934 71.2969 176.086 71.2969C183.236 71.2965 189.033 71.3372 189.033 71.3874Z" fill="#FAFAFA"/>
<path d="M161.43 78.2169C161.43 78.2671 152.416 78.3074 141.298 78.3074C130.177 78.3074 121.164 78.2667 121.164 78.2169C121.164 78.1668 130.177 78.1265 141.298 78.1265C152.416 78.1265 161.43 78.1668 161.43 78.2169Z" fill="#FAFAFA"/>
<path d="M165.557 84.193C165.557 84.2431 159.409 84.2835 151.827 84.2835C144.243 84.2835 138.096 84.2428 138.096 84.193C138.096 84.1429 144.243 84.1025 151.827 84.1025C159.409 84.1022 165.557 84.1429 165.557 84.193Z" fill="#FAFAFA"/>
<path d="M187.184 90.7379C187.184 90.7881 172.468 90.8284 154.318 90.8284C136.162 90.8284 121.449 90.7877 121.449 90.7379C121.449 90.6882 136.162 90.6475 154.318 90.6475C172.468 90.6475 187.184 90.6878 187.184 90.7379Z" fill="#FAFAFA"/>
<path d="M248.598 146.029C248.598 146.08 197.045 146.12 133.466 146.12C69.8647 146.12 18.3228 146.079 18.3228 146.029C18.3228 145.98 69.8647 145.939 133.466 145.939C197.045 145.939 248.598 145.979 248.598 146.029Z" fill="#263238"/>
<path d="M248.598 140.021C248.598 140.071 197.045 140.111 133.466 140.111C69.8647 140.111 18.3228 140.071 18.3228 140.021C18.3228 139.971 69.8647 139.93 133.466 139.93C197.045 139.93 248.598 139.971 248.598 140.021Z" fill="#263238"/>
<path d="M73.4835 146.273C73.4334 146.273 73.3931 144.841 73.3931 143.075C73.3931 141.309 73.4338 139.877 73.4835 139.877C73.5337 139.877 73.574 141.309 73.574 143.075C73.5744 144.841 73.5337 146.273 73.4835 146.273Z" fill="#263238"/>
<path d="M92.527 146.273C92.4769 146.273 92.4365 144.841 92.4365 143.075C92.4365 141.309 92.4772 139.877 92.527 139.877C92.5768 139.877 92.6175 141.309 92.6175 143.075C92.6175 144.841 92.5771 146.273 92.527 146.273Z" fill="#263238"/>
<path d="M111.57 146.273C111.52 146.273 111.48 144.841 111.48 143.075C111.48 141.309 111.521 139.877 111.57 139.877C111.62 139.877 111.661 141.309 111.661 143.075C111.661 144.841 111.621 146.273 111.57 146.273Z" fill="#263238"/>
<path d="M130.614 146.273C130.564 146.273 130.523 144.841 130.523 143.075C130.523 141.309 130.564 139.877 130.614 139.877C130.664 139.877 130.704 141.309 130.704 143.075C130.704 144.841 130.664 146.273 130.614 146.273Z" fill="#263238"/>
<path d="M149.657 146.273C149.607 146.273 149.566 144.841 149.566 143.075C149.566 141.309 149.607 139.877 149.657 139.877C149.707 139.877 149.747 141.309 149.747 143.075C149.747 144.841 149.707 146.273 149.657 146.273Z" fill="#263238"/>
<path d="M168.701 146.273C168.651 146.273 168.61 144.841 168.61 143.075C168.61 141.309 168.651 139.877 168.701 139.877C168.751 139.877 168.791 141.309 168.791 143.075C168.791 144.841 168.751 146.273 168.701 146.273Z" fill="#263238"/>
<path d="M190.373 146.273C190.323 146.273 190.282 144.841 190.282 143.075C190.282 141.309 190.323 139.877 190.373 139.877C190.422 139.877 190.463 141.309 190.463 143.075C190.464 144.841 190.423 146.273 190.373 146.273Z" fill="#263238"/>
<path d="M212.045 146.273C211.995 146.273 211.955 144.841 211.955 143.075C211.955 141.309 211.995 139.877 212.045 139.877C212.095 139.877 212.136 141.309 212.136 143.075C212.136 144.841 212.095 146.273 212.045 146.273Z" fill="#263238"/>
<path d="M233.717 146.273C233.667 146.273 233.627 144.841 233.627 143.075C233.627 141.309 233.667 139.877 233.717 139.877C233.768 139.877 233.808 141.309 233.808 143.075C233.808 144.841 233.768 146.273 233.717 146.273Z" fill="#263238"/>
<path d="M53.132 146.273C53.0819 146.273 53.0415 144.841 53.0415 143.075C53.0415 141.309 53.0822 139.877 53.132 139.877C53.1817 139.877 53.2225 141.309 53.2225 143.075C53.2228 144.841 53.1821 146.273 53.132 146.273Z" fill="#263238"/>
<path d="M32.7804 146.273C32.7303 146.273 32.6899 144.841 32.6899 143.075C32.6899 141.309 32.7307 139.877 32.7804 139.877C32.8305 139.877 32.8709 141.309 32.8709 143.075C32.8709 144.841 32.8302 146.273 32.7804 146.273Z" fill="#263238"/>
<path d="M55.5321 21.6791L13.2241 139.693L102.312 139.896L69.5956 21.2275L55.5321 21.6791Z" fill="#FFE4AF"/>
<g opacity="0.8">
<path d="M55.5648 22.0281L13.2241 140.26H102.381L69.6393 21.5757L55.5648 22.0281Z" fill="white"/>
</g>
<path d="M63.73 18.5542H61.0894V89.0726H63.73V18.5542Z" fill="#455A64"/>
<path d="M70.3428 22.9151C71.4041 18.5318 68.711 14.1181 64.3276 13.0569C59.9443 11.9957 55.5307 14.6888 54.4695 19.0721C53.4082 23.4553 56.1013 27.8691 60.4846 28.9303C64.868 29.9914 69.2816 27.2984 70.3428 22.9151Z" fill="#FFE4AF"/>
<g opacity="0.3">
<path d="M70.3428 22.9151C71.4041 18.5318 68.711 14.1181 64.3276 13.0569C59.9443 11.9957 55.5307 14.6888 54.4695 19.0721C53.4082 23.4553 56.1013 27.8691 60.4846 28.9303C64.868 29.9914 69.2816 27.2984 70.3428 22.9151Z" fill="white"/>
</g>
<path d="M64.1758 29.8045H60.5134C60.2483 29.8045 60.0332 29.5894 60.0332 29.3243V29.2874C60.0332 29.0222 60.2483 28.8071 60.5134 28.8071H64.1758C64.441 28.8071 64.656 29.0222 64.656 29.2874V29.3243C64.656 29.5894 64.441 29.8045 64.1758 29.8045Z" fill="#455A64"/>
<path d="M65.0503 139.738L59.769 139.881V82.0586H65.0503V139.738Z" fill="#263238"/>
<path d="M66.4151 82.0581H58.3468C58.0551 82.0581 57.8188 81.8218 57.8188 81.5302V81.4898C57.8188 81.1982 58.0551 80.9619 58.3468 80.9619H66.4151C66.7068 80.9619 66.9431 81.1982 66.9431 81.4898V81.5302C66.9431 81.8218 66.7068 82.0581 66.4151 82.0581Z" fill="#263238"/>
<path d="M195.141 94.9275H142.332V64.1573C142.332 62.7427 143.479 61.5957 144.894 61.5957H192.579C193.994 61.5957 195.141 62.7427 195.141 64.1573V94.9275Z" fill="#263238"/>
<path d="M151.234 82.6228V74.5239H156.691V75.9357H152.947V77.8655H156.411V79.2773H152.947V81.2111H156.707V82.6228H151.234ZM158.053 74.5239H160.165L162.395 79.9654H162.49L164.72 74.5239H166.832V82.6228H165.171V77.3514H165.104L163.008 82.5833H161.877L159.781 77.3317H159.714V82.6228H158.053V74.5239ZM168.243 82.6228V74.5239H171.438C172.052 74.5239 172.576 74.6413 173.008 74.8759C173.44 75.1079 173.77 75.4308 173.997 75.8448C174.226 76.256 174.341 76.7306 174.341 77.2684C174.341 77.8062 174.225 78.2808 173.993 78.692C173.761 79.1033 173.424 79.4236 172.984 79.653C172.547 79.8823 172.017 79.997 171.394 79.997H169.358V78.6248H171.118C171.447 78.6248 171.719 78.5681 171.932 78.4548C172.148 78.3388 172.309 78.1793 172.415 77.9763C172.523 77.7706 172.577 77.5347 172.577 77.2684C172.577 76.9995 172.523 76.7648 172.415 76.5645C172.309 76.3615 172.148 76.2046 171.932 76.0939C171.716 75.9805 171.442 75.9238 171.11 75.9238H169.955V82.6228H168.243ZM175.144 75.9357V74.5239H181.796V75.9357H179.316V82.6228H177.624V75.9357H175.144ZM182.417 74.5239H184.335L186.181 78.0118H186.261L188.107 74.5239H190.025L187.071 79.7598V82.6228H185.371V79.7598L182.417 74.5239Z" fill="white"/>
</svg>
