<svg width="296" height="157" viewBox="0 0 296 157" fill="none" xmlns="http://www.w3.org/2000/svg">
<g clip-path="url(#clip0_3859_79403)">
<path d="M66.8576 194.497C75.1112 196.817 85.2501 198.608 96.166 199.99C150.985 206.93 207.83 201.748 257.896 185.69C288.334 175.927 318.497 164.687 320.15 158.037C323.536 144.42 305.928 154.084 312.7 140.905C319.472 127.727 330.308 104.006 330.986 67.1077C331.663 30.2086 307.96 -1.41863 285.61 -5.81112C239.557 -19.4288 86.4978 15.7132 95.3028 3.85267C104.107 -8.00788 49.9272 -4.93283 16.0639 40.3121C-17.7994 85.557 26.2222 183.076 66.8576 194.497Z" fill="#FFF184"/>
<g opacity="0.3">
<path d="M114.036 113.771L97.9141 106.727L84.7234 136.913L100.845 143.958L114.036 113.771Z" stroke="black" stroke-width="0.482" stroke-miterlimit="10" stroke-linecap="round"/>
<path d="M98.4779 110.728C98.4369 110.71 98.3974 110.69 98.3589 110.669L88.0527 134.251C88.0947 134.265 88.1361 134.28 88.1771 134.298C88.8297 134.583 89.1281 135.344 88.8427 135.997C88.7941 136.108 88.7309 136.208 88.6576 136.297L98.7387 140.703C98.7546 140.588 98.7849 140.474 98.8336 140.362C99.119 139.71 99.8796 139.411 100.532 139.697L110.833 116.127C110.18 115.842 109.882 115.081 110.167 114.428L100.176 110.062C99.8916 110.716 99.131 111.013 98.4779 110.728ZM101.277 120.993C103.682 122.044 104.78 124.845 103.729 127.25C102.678 129.654 99.8767 130.752 97.472 129.701C95.0673 128.65 93.9698 125.849 95.0205 123.444C96.0713 121.039 98.8727 119.942 101.277 120.993Z" stroke="black" stroke-width="0.482" stroke-miterlimit="10" stroke-linecap="round"/>
</g>
<g opacity="0.3">
<path d="M158.076 52.8695L159.035 70.4375L191.929 68.6421L190.971 51.074L158.076 52.8695Z" stroke="black" stroke-width="0.482" stroke-miterlimit="10" stroke-linecap="round"/>
<path d="M162.349 68.13C162.351 68.1749 162.351 68.2192 162.35 68.2631L188.047 66.86C188.041 66.8166 188.036 66.7722 188.033 66.7279C187.994 66.0165 188.54 65.4082 189.251 65.3696C189.372 65.3629 189.49 65.3744 189.603 65.4L189.003 54.4147C188.894 54.4518 188.778 54.4764 188.657 54.4832C187.945 54.5222 187.337 53.9771 187.298 53.2656L161.615 54.6682C161.654 55.3797 161.108 55.988 160.396 56.0265L160.991 66.9135C161.702 66.8735 162.31 67.4186 162.349 68.13ZM170.257 61.0128C170.114 58.3927 172.123 56.1523 174.743 56.0092C177.363 55.866 179.603 57.8745 179.746 60.4947C179.89 63.1148 177.881 65.3551 175.261 65.4983C172.64 65.6415 170.4 63.6334 170.257 61.0128Z" stroke="black" stroke-width="0.482" stroke-miterlimit="10" stroke-linecap="round"/>
</g>
<g opacity="0.3">
<path d="M271.046 142.43L253.504 141.07L250.957 173.915L268.499 175.275L271.046 142.43Z" stroke="black" stroke-width="0.482" stroke-miterlimit="10" stroke-linecap="round"/>
<path d="M255.347 144.671C255.303 144.667 255.259 144.661 255.215 144.654L253.225 170.312C253.268 170.312 253.313 170.312 253.358 170.316C254.068 170.371 254.599 170.992 254.544 171.702C254.534 171.823 254.508 171.938 254.468 172.046L265.437 172.897C265.414 172.784 265.405 172.666 265.414 172.545C265.469 171.835 266.09 171.303 266.8 171.359L268.79 145.714C268.079 145.659 267.548 145.038 267.604 144.328L256.733 143.484C256.678 144.194 256.057 144.726 255.347 144.671ZM261.362 153.446C263.978 153.649 265.934 155.935 265.732 158.551C265.529 161.168 263.243 163.124 260.627 162.921C258.01 162.718 256.054 160.432 256.257 157.816C256.46 155.2 258.745 153.243 261.362 153.446Z" stroke="black" stroke-width="0.482" stroke-miterlimit="10" stroke-linecap="round"/>
</g>
<g opacity="0.3">
<path d="M249.814 73.9306L238.918 60.1172L213.054 80.5192L223.95 94.3326L249.814 73.9306Z" stroke="black" stroke-width="0.482" stroke-miterlimit="10" stroke-linecap="round"/>
<path d="M237.533 63.9131C237.505 63.878 237.479 63.8418 237.456 63.8047L217.25 79.743C217.28 79.7743 217.31 79.8076 217.337 79.8432C217.779 80.4024 217.683 81.2136 217.123 81.6551C217.028 81.7303 216.925 81.7886 216.818 81.8329L223.632 90.4709C223.7 90.3773 223.781 90.2906 223.876 90.2154C224.435 89.7744 225.247 89.8698 225.688 90.4294L245.883 74.4993C245.442 73.9397 245.538 73.129 246.097 72.6875L239.345 64.1271C238.785 64.5682 237.974 64.4723 237.533 63.9131ZM235.162 74.2843C236.788 76.3449 236.435 79.3323 234.374 80.9576C232.314 82.5829 229.326 82.2301 227.701 80.1696C226.076 78.109 226.428 75.1216 228.489 73.4963C230.549 71.8714 233.537 72.2243 235.162 74.2843Z" stroke="black" stroke-width="0.482" stroke-miterlimit="10" stroke-linecap="round"/>
</g>
<g opacity="0.3">
<path d="M162.576 21.8134L151.68 8L125.816 28.4021L136.712 42.2155L162.576 21.8134Z" stroke="black" stroke-width="0.482" stroke-miterlimit="10" stroke-linecap="round"/>
<path d="M150.297 11.7959C150.269 11.7608 150.243 11.7246 150.22 11.6875L130.013 27.6263C130.044 27.6576 130.073 27.6913 130.101 27.7265C130.542 28.2857 130.447 29.0969 129.887 29.5384C129.792 29.6136 129.689 29.6719 129.582 29.7162L136.396 38.3542C136.464 38.2606 136.545 38.1739 136.639 38.0987C137.199 37.6577 138.01 37.7531 138.451 38.3127L158.647 22.3826C158.206 21.823 158.302 21.0118 158.861 20.5708L152.109 12.01C151.549 12.4515 150.738 12.3556 150.297 11.7959ZM147.926 22.1676C149.552 24.2282 149.199 27.2161 147.138 28.8409C145.078 30.4657 142.09 30.1134 140.465 28.0528C138.84 25.9923 139.193 23.0044 141.253 21.3796C143.314 19.7547 146.301 20.1071 147.926 22.1676Z" stroke="black" stroke-width="0.482" stroke-miterlimit="10" stroke-linecap="round"/>
</g>
<g opacity="0.3">
<path d="M221.552 140.931L210.656 127.117L184.792 147.519L195.688 161.333L221.552 140.931Z" stroke="black" stroke-width="0.482" stroke-miterlimit="10" stroke-linecap="round"/>
<path d="M209.268 130.913C209.24 130.878 209.214 130.842 209.191 130.805L188.984 146.743C189.014 146.774 189.044 146.808 189.072 146.843C189.513 147.403 189.417 148.214 188.858 148.655C188.762 148.73 188.66 148.789 188.553 148.833L195.366 157.471C195.434 157.377 195.515 157.291 195.61 157.215C196.17 156.774 196.981 156.87 197.422 157.429L217.618 141.499C217.177 140.94 217.272 140.129 217.832 139.687L211.079 131.127C210.52 131.568 209.709 131.473 209.268 130.913ZM206.897 141.285C208.522 143.345 208.17 146.333 206.109 147.958C204.049 149.583 201.061 149.231 199.436 147.17C197.811 145.109 198.163 142.122 200.224 140.497C202.284 138.871 205.272 139.224 206.897 141.285Z" stroke="black" stroke-width="0.482" stroke-miterlimit="10" stroke-linecap="round"/>
</g>
<path d="M309.468 20.6423C289.523 19.0979 276.28 16.3465 276.026 16.3557C274.987 16.394 267.788 14.975 258.109 17.5515C248.429 20.1286 225.917 22.2792 225.917 22.2792C225.917 22.2792 222.437 23.5014 222.091 24.1776C221.745 24.8537 213.354 47.2206 212.195 50.2817C211.036 53.3428 211.176 55.8592 212.354 58.3366C213.532 60.8147 219.579 65.3371 223.026 68.9595C226.474 72.5818 228.726 76.1481 230.302 74.6644C231.877 73.1801 231.443 70.045 231.443 70.045C231.443 70.045 246.612 67.897 249.66 67.5207C252.708 67.1437 253.869 68.0634 254.197 65.8283C254.525 63.5939 252.463 61.2472 252.463 61.2472C252.463 61.2472 254.315 58.8239 253.726 57.5852C253.137 56.3465 250.747 56.2349 249.223 56.4231C247.699 56.6113 242.608 58.1914 242.608 58.1914C242.608 58.1914 240.2 56.5215 240.477 55.5825C240.754 54.6436 243.869 48.5583 243.869 48.5583C243.869 48.5583 245.549 48.4639 248.042 47.9746C250.536 47.4853 252.475 46.8838 254.363 47.5771C256.251 48.2711 263.092 48.8502 265.586 48.3602C268.079 47.8709 274.572 43.1551 274.572 43.1551L309.469 51.3923V20.6423H309.468Z" fill="#E6C5BA" stroke="#263238" stroke-width="0.608994" stroke-miterlimit="10" stroke-linecap="round" stroke-linejoin="round"/>
<path d="M285.379 17.2969L283.728 63.2138L299.415 67.6893L300.241 18.1922L285.379 17.2969Z" fill="#D76161" stroke="#263238" stroke-width="0.608994" stroke-miterlimit="10" stroke-linecap="round" stroke-linejoin="round"/>
<path d="M228.152 32.2422C228.152 32.2422 229.488 36.8042 232.675 38.9435" stroke="#263238" stroke-width="0.608994" stroke-miterlimit="10" stroke-linecap="round" stroke-linejoin="round"/>
<path d="M222.51 37.7031C222.51 37.7031 223.152 41.6273 225.664 42.6963" stroke="#263238" stroke-width="0.608994" stroke-miterlimit="10" stroke-linecap="round" stroke-linejoin="round"/>
<path d="M224.906 59.6953L224.768 61.1598C224.768 61.1598 230.068 64.3497 231.438 70.0382" stroke="#263238" stroke-width="0.608994" stroke-miterlimit="10" stroke-linecap="round" stroke-linejoin="round"/>
<path d="M229.062 57.5625L232.042 60.9036C232.042 60.9036 238.451 62.3279 239.663 61.9515C240.875 61.5751 249.065 58.3232 252.46 61.2509" stroke="#263238" stroke-width="0.608994" stroke-miterlimit="10" stroke-linecap="round" stroke-linejoin="round"/>
<path d="M242.606 58.1894L239.419 58.0408L235.66 56.221C235.66 56.221 237.685 53.4597 236.49 51.4141" stroke="#263238" stroke-width="0.608994" stroke-miterlimit="10" stroke-linecap="round" stroke-linejoin="round"/>
<path d="M250.843 92.8119L238.297 99.6425C237.209 100.235 235.883 99.7594 235.337 98.5797L225.403 77.1308C224.856 75.9511 225.295 74.5141 226.385 73.9214L238.93 67.0908C240.019 66.4982 241.344 66.974 241.891 68.1551L251.824 89.6039C252.371 90.7822 251.931 92.2193 250.843 92.8119Z" fill="#37474F"/>
<path d="M239.6 69.4798L227.797 75.9062L229.899 80.4455L241.702 74.019L239.6 69.4798Z" fill="#455A64"/>
<path d="M242.172 75.114L230.369 81.5391L232.471 86.0783L244.274 79.6533L242.172 75.114Z" fill="#455A64"/>
<path d="M244.766 80.7156L232.963 87.1406L235.065 91.6798L246.868 85.2548L244.766 80.7156Z" fill="#455A64"/>
<path d="M247.387 86.2767L235.584 92.7031L237.686 97.2423L249.489 90.8159L247.387 86.2767Z" fill="#455A64"/>
<path d="M237.295 70.454L229.855 74.505L228.417 71.3999C227.965 70.4247 228.329 69.2325 229.229 68.7414L233.404 66.4683C234.305 65.9786 235.404 66.3723 235.856 67.3489L237.295 70.454ZM230.36 72.8551L235.775 69.9072L234.846 67.9012C234.674 67.5311 234.257 67.3809 233.915 67.5673L229.739 69.8405C229.398 70.0255 229.26 70.479 229.431 70.8491L230.36 72.8551Z" fill="#37474F"/>
<path d="M221.868 73.5135C215.505 73.5135 210.328 67.9002 210.328 61.0029C210.328 54.1041 215.504 48.4922 221.868 48.4922C228.23 48.4922 233.407 54.1041 233.407 61.0029C233.407 67.9002 228.23 73.5135 221.868 73.5135ZM221.868 49.8068C216.175 49.8068 211.542 54.8289 211.542 61.0015C211.542 67.174 216.174 72.1961 221.868 72.1961C227.561 72.1961 232.193 67.174 232.193 61.0015C232.192 54.8289 227.561 49.8068 221.868 49.8068Z" fill="#F3F3F3"/>
<path d="M219.841 84.2926L219.381 86.7266L226.2 88.2428L226.66 85.8088L219.841 84.2926Z" fill="#AA6550"/>
<path d="M220.463 86.9688L225.086 87.9968L224.854 89.228L223.467 89.6662L224.582 90.6623L224.198 92.6976L222.46 93.4474L223.785 94.8803L223.698 95.3393L222.311 95.779L223.427 96.7736L222.04 97.2132L223.155 98.2079L222.85 99.8216L221.113 100.573L222.438 102.004L222.171 103.416L219.275 105.972L217.547 102.388L220.463 86.9688Z" fill="#EBEBEB"/>
<path d="M222.356 88.1037L219.639 102.469L219.958 102.54L222.675 88.1747L222.356 88.1037Z" fill="#DBDBDB"/>
<path d="M231.073 73.1203L220.401 70.7483C219.678 70.587 218.959 71.1017 218.808 71.8974L217.277 79.9884C216.846 82.2685 218.206 84.5055 220.309 84.9729L225.992 86.2361C228.095 86.7035 230.157 85.2289 230.588 82.9488L232.118 74.8578C232.271 74.0607 231.796 73.2816 231.073 73.1203ZM229.002 76.7929L220.972 75.0081L221.389 72.8017L229.419 74.5866L229.002 76.7929Z" fill="#AA6550"/>
<path opacity="0.1" d="M228.154 80.0791L227.887 81.5454C227.738 83.3302 226.287 84.0411 224.816 83.5278L222.104 82.9852C221.159 82.9101 220.182 82.177 220.036 81.078C219.94 80.5285 220.113 80.0165 220.193 79.5449C220.363 78.9119 220.322 77.6376 221.245 77.6808C221.726 77.7587 222.796 78.0605 223.282 78.1649L225.973 78.8187L227.321 79.1303C227.777 79.1609 228.275 79.5101 228.154 80.0791ZM228.154 80.0791C228.262 79.5115 227.777 79.1776 227.318 79.154L225.965 78.8646L223.254 78.3165C222.808 78.2414 221.664 77.9771 221.237 77.9228C220.498 77.9687 220.655 78.987 220.466 79.6061C220.386 80.1055 220.243 80.5771 220.334 81.0237C220.472 82.0128 221.256 82.6068 222.155 82.7153L224.844 83.3734C226.263 83.9493 227.712 83.2857 227.865 81.5398C227.867 81.5398 228.154 80.0791 228.154 80.0791Z" fill="black"/>
<path d="M238.977 33.0156C238.977 33.0156 237.783 36.9404 232.675 38.9523C227.567 40.9636 223.672 44.5893 219.413 47.3328C215.155 50.0763 210.325 55.1296 212.352 58.3393C214.379 61.549 218.778 61.3218 223.246 59.3667C227.713 57.4116 237.961 48.5445 241.391 48.6177C244.82 48.691 250.586 48.1813 254.362 47.5791C258.137 46.9769 261.824 44.5523 266.586 41.2271" fill="#E6C5BA"/>
<path d="M238.977 33.0156C238.977 33.0156 237.783 36.9404 232.675 38.9523C227.567 40.9636 223.672 44.5893 219.413 47.3328C215.155 50.0763 210.325 55.1296 212.352 58.3393C214.379 61.549 218.778 61.3218 223.246 59.3667C227.713 57.4116 237.961 48.5445 241.391 48.6177C244.82 48.691 250.586 48.1813 254.362 47.5791C258.137 46.9769 261.824 44.5523 266.586 41.2271" stroke="#263238" stroke-width="0.608994" stroke-miterlimit="10" stroke-linecap="round" stroke-linejoin="round"/>
<path d="M88.3403 29.7865L84.4853 29.7578C84.4853 29.7578 78.5061 51.8595 76.2339 59.6557C73.9618 67.4519 72.7927 79.1076 72.7927 79.1076L95.7785 43.5619L88.3403 29.7865Z" fill="#81F277" stroke="#263238" stroke-width="0.48535" stroke-miterlimit="10"/>
<path d="M101.616 30.8616L87.0431 29C87.0431 29 79.0504 51.8519 77.1702 61.9738C75.29 72.0956 73.4329 77.5175 73.4329 77.5175C73.4329 77.5175 83.2083 66.4073 91.006 53.7919C98.8038 41.1765 104.145 32.293 104.145 32.293L101.616 30.8616Z" fill="#81F277" stroke="#263238" stroke-width="0.48535" stroke-miterlimit="10"/>
<path opacity="0.58" d="M102.299 32.1432L101.281 32.07L87.8098 31.1016C87.8098 31.1016 81.0021 50.8213 79.3365 58.2631C77.671 65.7049 76.6792 72.7918 76.6792 72.7918L102.299 32.1432Z" fill="white"/>
<path d="M90.6828 49.5962C92.303 50.8386 92.2262 54.5414 90.511 57.8656C88.7959 61.1899 86.0919 62.8774 84.4713 61.6349C82.8511 60.3925 82.9279 56.6898 84.6431 53.3655C86.3586 50.0407 89.0626 48.3532 90.6828 49.5962Z" fill="#81F277" stroke="#263238" stroke-width="0.48535" stroke-miterlimit="10"/>
<path d="M109.966 31.8626L101.664 29.5703C101.664 29.5703 90.3373 51.9833 83.825 60.8873C77.3126 69.7913 71.1733 79.1213 71.1733 79.1213C71.1733 79.1213 79.5562 74.8681 93.705 60.8586C107.854 46.8487 112.745 35.4394 112.745 35.4394L109.966 31.8626Z" fill="#81F277" stroke="#263238" stroke-width="0.48535" stroke-miterlimit="10"/>
<path opacity="0.58" d="M108.822 32.791L102.299 32.1406C102.299 32.1406 92.7094 49.3186 87.4531 57.3069C82.1968 65.2952 74.7607 76.2246 74.7607 76.2246C74.7607 76.2246 85.9703 66.1812 93.0594 56.2253C100.148 46.2694 110.824 33.3175 110.824 33.3175L108.822 32.791Z" fill="white"/>
<path d="M117.296 35.089L109.327 30.9141C109.327 30.9141 94.6438 52.0068 84.9221 64.3349C75.2005 76.6635 71.177 79.1074 71.177 79.1074L70.5549 82.1178C70.5549 82.1178 84.0509 76.3634 96.9147 60.4837C109.778 44.6034 117.619 36.8154 117.619 36.8154L117.296 35.089Z" fill="#81F277" stroke="#263238" stroke-width="0.48535" stroke-miterlimit="10"/>
<path opacity="0.58" d="M116.645 36.4484L110.822 33.3203C110.822 33.3203 96.2874 52.2862 89.6533 60.6575C83.0191 69.0289 73.9927 78.5817 73.9927 78.5817C73.9927 78.5817 81.9198 76.7262 88.3737 69.372C94.8277 62.0178 116.645 36.4484 116.645 36.4484Z" fill="white"/>
<path d="M123.444 40.5088L117.119 34.4062C117.119 34.4062 88.4305 63.6773 81.8833 68.6255C75.3361 73.5743 68.8015 77.3026 68.8015 77.3026L66.6138 81.6558C66.6138 81.6558 74.3082 82.2293 91.7427 70.9537C109.177 59.678 124.408 42.6255 124.408 42.6255L123.444 40.5088Z" fill="#81F277" stroke="#263238" stroke-width="0.48535" stroke-miterlimit="10"/>
<path opacity="0.58" d="M123.039 41.5111L117.55 37.2266C117.55 37.2266 97.5133 56.4229 91.2249 62.0236C84.9365 67.6248 79.5638 71.5964 77.8747 72.739C76.1856 73.8815 72.5957 76.3101 72.5957 76.3101L74.3192 77.6693C74.3192 77.6693 80.8984 77.2586 91.6677 69.9729C102.437 62.6873 124.407 42.6234 124.407 42.6234L123.039 41.5111Z" fill="white"/>
<path d="M98.8009 62.2409C99.4495 63.6656 97.6915 66.3656 94.875 68.2712C92.0584 70.1769 89.249 70.5666 88.6004 69.1419C87.9518 67.7171 89.7098 65.0171 92.5264 63.1115C95.3434 61.2058 98.1528 60.8161 98.8009 62.2409Z" fill="#81F277" stroke="#263238" stroke-width="0.48535" stroke-miterlimit="10"/>
<path d="M126.106 45.1043L123.842 39.1953C123.842 39.1953 105.73 58.0239 93.0335 66.6134C80.3373 75.2024 67.1724 79.9561 67.1724 79.9561L65.2061 84.0552C65.2061 84.0552 75.8737 84.1059 94.7789 72.0083C113.684 59.9106 126.128 50.4541 126.128 50.4541L126.106 45.1043Z" fill="#81F277" stroke="#263238" stroke-width="0.48535" stroke-miterlimit="10"/>
<path opacity="0.58" d="M125.935 46.6041L123.038 41.5078C123.038 41.5078 108.047 56.9707 101.757 62.135C95.4656 67.2994 81.3634 75.7844 79.0497 76.4067C76.736 77.0289 75.8857 77.6389 75.8857 77.6389L78.2894 79.6459C78.2894 79.6459 87.5784 76.8128 98.4388 68.9208C109.299 61.0288 125.552 48.9435 125.552 48.9435L125.935 46.6041Z" fill="white"/>
<path d="M124.632 59.1685C124.632 59.1685 126.429 57.7872 126.826 53.5324C127.223 49.2776 127.434 46.3047 127.434 46.3047C127.434 46.3047 103.869 63.0371 95.0751 68.3229C86.2809 73.6086 77.1911 76.3839 74.908 76.8745C72.6249 77.3651 65.2103 78.9312 65.2103 78.9312L60.6794 85.4911C60.6794 85.4911 69.1228 88.7924 79.06 85.0205C88.9971 81.2491 112.791 71.4249 115.143 70.0559C117.495 68.687 124.632 59.1685 124.632 59.1685Z" fill="#81F277" stroke="#263238" stroke-width="0.48535" stroke-miterlimit="10"/>
<path opacity="0.58" d="M124.633 59.176C124.633 59.176 126.213 53.7295 126.18 52.2402C126.147 50.7504 126.182 48.3828 126.182 48.3828C126.182 48.3828 109.133 59.9816 103.065 64.8546C96.9972 69.7275 83.9726 75.7989 81.188 76.4134C78.4033 77.028 65.7067 79.7229 65.7067 79.7229L62.2861 85.7374C62.2861 85.7374 71.8696 87.0336 81.364 83.1844C90.8584 79.3352 108.05 73.0185 108.498 72.7578C108.946 72.4972 115.144 70.0635 115.144 70.0635L124.633 59.176Z" fill="white"/>
<path d="M99.5896 71.4018C100.165 72.8722 98.2756 75.4359 95.3683 77.128C92.461 78.8201 89.6377 78.9994 89.0618 77.529C88.4859 76.0587 90.3758 73.4949 93.2831 71.8028C96.1904 70.1108 99.0137 69.931 99.5896 71.4018Z" fill="#81F277" stroke="#263238" stroke-width="0.48535" stroke-miterlimit="10"/>
<path d="M86.6425 87.0907C86.6425 87.0907 104.241 79.4876 108.365 78.429C112.488 77.3704 116.981 77.606 116.981 77.606L127.373 54.625C127.373 54.625 114.081 60.0137 107.191 64.1912C100.3 68.3691 89.7628 75.1723 87.4793 75.663C85.1962 76.1536 74.0291 76.7845 74.0291 76.7845L68.3208 91.0045L71.7108 93.1242L74.4273 94.659L86.6425 87.0907Z" fill="#81F277" stroke="#263238" stroke-width="0.48535" stroke-miterlimit="10"/>
<path opacity="0.58" d="M124.563 56.9219L116.088 74.2612C116.088 74.2612 106.502 76.8224 100.027 79.2499C93.5513 81.6774 83.4819 86.8669 81.9137 87.7795C80.3456 88.6921 79.7222 89.5581 78.6658 89.6698C77.6093 89.7814 69.9275 91.2349 69.9275 91.2349L74.623 77.9399C74.623 77.9399 87.3528 76.7348 87.9661 76.5453C88.5794 76.3558 107.405 64.7288 110.925 63.1832C114.445 61.6371 124.563 56.9219 124.563 56.9219Z" fill="white"/>
<path d="M98.6844 74.4173C99.2603 75.8876 97.3704 78.4513 94.4631 80.1434C91.5558 81.8355 88.7325 82.0148 88.157 80.5444C87.5811 79.0741 89.471 76.5103 92.3783 74.8183C95.2852 73.1262 98.1089 72.9469 98.6844 74.4173Z" fill="#81F277" stroke="#263238" stroke-width="0.48535" stroke-miterlimit="10"/>
<path d="M35.2904 95.0672C35.2904 95.0672 48.9287 83.6436 49.9268 83.0623C50.9249 82.4815 59.0818 81.0547 60.2966 80.6798C61.5115 80.305 63.2081 80.812 64.186 81.5704C65.164 82.3294 73.2276 83.4474 74.3366 82.8016C75.4456 82.1563 80.1037 79.4451 81.1446 79.6694C82.1856 79.8937 83.4916 80.794 82.685 83.2554C81.8785 85.7172 77.682 90.6495 76.1244 91.8884C74.5668 93.1267 74.5668 93.1267 74.5668 93.1267L77.9996 91.4608L86.64 87.0964C86.64 87.0964 85.9674 91.6385 85.8414 92.7078C85.7154 93.7771 86.9584 95.2121 84.6144 97.5726C82.2704 99.933 79.9844 102.094 79.9844 102.094C79.9844 102.094 79.3997 104.426 78.4923 106.282C77.585 108.139 77.469 108.538 77.4539 109.543C77.4388 110.548 76.3075 116.353 74.755 117.257C73.2024 118.16 69.6255 118.416 68.262 117.715C66.8984 117.015 62.4394 117.452 62.4394 117.452C62.4394 117.452 46.6629 117.502 44.6285 117.524C42.5945 117.545 40.0485 118.695 40.0485 118.695L38.4959 119.598L33.637 95.3648L35.2904 95.0672Z" fill="#E6C5BA" stroke="#263238" stroke-width="0.48535" stroke-miterlimit="10" stroke-linecap="round" stroke-linejoin="round"/>
<path d="M35.5864 105.289L40.0484 118.697L37.4738 120.214L35.5864 105.289Z" fill="#263238" stroke="#263238" stroke-width="0.48535" stroke-miterlimit="10"/>
<path d="M74.9502 93.0052C74.9502 93.0052 79.0891 91.7254 81.2319 93.3883C83.3751 95.0512 84.014 97.9529 84.014 97.9529C84.014 97.9529 86.0551 96.8339 85.9484 94.7659C85.8417 92.6974 85.8417 92.6974 85.8417 92.6974L86.6403 87.0859L74.9502 93.0052Z" fill="#263238" stroke="#263238" stroke-width="0.48535" stroke-miterlimit="10"/>
<path d="M64.4272 91.2344C64.4272 91.2344 66.5141 91.3481 67.3816 92.1716C68.2486 92.9951 69.6655 93.8309 69.6655 93.8309L71.7096 93.1395L74.5681 93.1359" stroke="#263238" stroke-width="0.48535" stroke-miterlimit="10"/>
<path d="M78.8702 103.07C78.8702 103.07 77.0126 105.978 76.7858 106.442C76.559 106.906 74.8123 109.749 73.3757 110.252C71.9391 110.756 69.8618 109.973 69.8618 109.973C69.8618 109.973 72.922 112.758 74.2696 112.244C75.6176 111.729 78.8702 103.07 78.8702 103.07Z" fill="#263238" stroke="#263238" stroke-width="0.48535" stroke-miterlimit="10"/>
<path d="M21.3579 98.6181C21.3579 98.6181 33.0761 92.5329 33.2299 93.2734C33.3836 94.014 33.6382 95.3599 33.6382 95.3599L38.4971 119.594C38.4971 119.594 40.5395 130.026 40.1539 130.085C39.7683 130.143 29.0784 133.637 29.0784 133.637L21.3579 98.6181Z" fill="white" stroke="#263238" stroke-width="0.48535" stroke-miterlimit="10"/>
<path d="M0 156.966L31.5782 143.791C31.5782 143.791 30.3848 135.014 29.517 131.226C28.3299 126.047 28.2988 119.771 26.5395 112.518C24.8672 105.621 24.2493 93.5301 24.2493 93.5301C23.4982 92.3071 19.0321 94.243 19.0321 94.243L0 100.927V156.966Z" fill="#263238" stroke="#263238" stroke-width="0.48535" stroke-miterlimit="10"/>
</g>
<defs>
<clipPath id="clip0_3859_79403">
<rect width="296" height="157" rx="8" fill="white"/>
</clipPath>
</defs>
</svg>
