<svg width="218" height="119" viewBox="0 0 218 119" fill="none" xmlns="http://www.w3.org/2000/svg">
<path d="M76.2131 45.3615C82.5116 43.8086 86.2369 37.8939 84.5339 32.1506C82.8309 26.4074 76.3445 23.0104 70.046 24.5633C63.7475 26.1161 60.0222 32.0308 61.7251 37.7741C63.4281 43.5174 69.9146 46.9144 76.2131 45.3615Z" fill="white"/>
<path d="M82.0709 27.929C82.0678 27.9313 82.0201 27.891 81.9298 27.8099C81.8335 27.7216 81.702 27.6009 81.5336 27.4466C81.4463 27.3658 81.35 27.276 81.2441 27.1775C81.133 27.0829 81.0011 26.9899 80.8639 26.883C80.5879 26.6717 80.2771 26.4192 79.88 26.1917C79.1257 25.6883 78.0985 25.2011 76.8429 24.816C75.5865 24.4377 74.0709 24.2034 72.4052 24.3036C70.7491 24.4076 68.9276 24.8216 67.2411 25.7381C65.5723 26.6555 63.9713 27.9887 62.9223 29.7605C62.635 30.1899 62.4311 30.6636 62.2062 31.1341C62.1069 31.3739 62.0296 31.6232 61.9398 31.8694C61.8421 32.114 61.7827 32.3696 61.7236 32.6265C61.5769 33.1354 61.5296 33.6657 61.4572 34.1968C61.4441 34.7322 61.4099 35.2732 61.4767 35.8165C61.5822 36.8993 61.8243 38.0034 62.3187 39.0383C62.7978 40.0763 63.4583 41.0594 64.2751 41.9458C65.1179 42.8121 66.0892 43.5514 67.146 44.1347C68.1972 44.7315 69.3607 45.1106 70.5204 45.3631C71.1006 45.502 71.6926 45.5499 72.2755 45.616C72.8627 45.6278 73.4447 45.6619 74.0184 45.6037C74.3057 45.5879 74.5917 45.5716 74.8712 45.5186C75.1516 45.4731 75.4328 45.4395 75.708 45.3849C76.2514 45.2503 76.7952 45.1351 77.3025 44.9381C79.3775 44.2487 81.057 42.9977 82.2948 41.6253C83.5343 40.2366 84.2478 38.6532 84.6011 37.1743C84.9513 35.6863 84.917 34.2846 84.6887 33.0966C84.4531 31.9082 84.0742 30.9105 83.6372 30.1574C83.4475 29.7664 83.2188 29.449 83.0296 29.1696C82.9337 29.0307 82.8516 28.8981 82.7653 28.7842C82.6741 28.6742 82.5908 28.5744 82.5157 28.4838C82.3729 28.3097 82.2614 28.1735 82.1794 28.0738C82.1051 27.9804 82.0683 27.9313 82.0709 27.929C82.0739 27.9266 82.1164 27.9709 82.1976 28.06C82.284 28.1569 82.4016 28.2891 82.5526 28.4585C82.6307 28.5475 82.7171 28.6461 82.8121 28.7541C82.902 28.8669 82.9875 28.9983 83.0869 29.136C83.283 29.4138 83.5191 29.7296 83.7166 30.121C84.1684 30.8745 84.5642 31.8773 84.8137 33.0764C85.0563 34.2755 85.1028 35.6939 84.7578 37.2044C84.4101 38.7055 83.694 40.3162 82.4415 41.7321C81.1907 43.1315 79.4877 44.4086 77.3772 45.1157C76.8611 45.3172 76.3082 45.4363 75.7549 45.574C75.4754 45.6302 75.1885 45.665 74.9034 45.7121C74.6186 45.766 74.3279 45.7838 74.0349 45.8004C73.4508 45.8601 72.8579 45.8273 72.2599 45.8154C71.6661 45.7493 71.0629 45.701 70.4713 45.5602C69.2891 45.3045 68.1034 44.9183 67.0315 44.3112C65.9538 43.7172 64.9634 42.9637 64.1046 42.0808C63.2717 41.1781 62.599 40.1753 62.1112 39.1171C61.6086 38.0616 61.3617 36.9361 61.2562 35.8328C61.1894 35.2787 61.2245 34.7279 61.2393 34.1825C61.3135 33.6415 61.3634 33.1017 61.5136 32.5833C61.5739 32.3217 61.6355 32.0617 61.7354 31.8128C61.8278 31.5623 61.9068 31.309 62.0088 31.0648C62.2384 30.5856 62.448 30.1044 62.7414 29.6679C63.8151 27.8668 65.4478 26.5158 67.1473 25.5905C68.8651 24.6657 70.717 24.2541 72.3961 24.1579C74.0848 24.0657 75.6173 24.3138 76.8833 24.7068C78.1484 25.1061 79.1787 25.6087 79.9308 26.126C80.3266 26.3606 80.6356 26.6195 80.9082 26.8371C81.0436 26.9467 81.1738 27.0433 81.2832 27.1403C81.3869 27.2416 81.4811 27.3342 81.5661 27.4177C81.728 27.5783 81.8543 27.7038 81.9472 27.7956C82.0318 27.8819 82.0739 27.927 82.0709 27.929Z" fill="#263238"/>
<path d="M69.9154 31.9631H71.7868C71.7868 31.9631 71.7868 30.5305 73.4195 30.5048C74.2675 30.4913 74.7072 30.9979 74.886 31.3861C75.0934 31.8369 75.0305 32.3501 74.7527 32.7681C74.4355 33.2453 73.7398 33.6791 72.4786 33.4764V37.3239H74.3292V35.0701C74.3292 35.0701 76.9245 34.4583 76.9245 31.8503C76.9245 29.3552 74.4706 28.7754 73.4199 28.7754C72.6166 28.7754 69.8802 28.9527 69.9154 31.9631Z" fill="#FF725E"/>
<path d="M74.3516 38.1191H72.4736V39.7183H74.3516V38.1191Z" fill="#FF725E"/>
<path d="M89.2837 40.0329C89.2837 40.7556 88.6414 41.3413 87.8489 41.3413C87.0564 41.3413 86.4141 40.7556 86.4141 40.0329C86.4141 39.3103 87.0564 38.7246 87.8489 38.7246C88.6414 38.7246 89.2837 39.3103 89.2837 40.0329Z" fill="white"/>
<path d="M89.2823 40.0355C89.2624 40.0363 89.2593 39.9191 89.1947 39.726C89.1309 39.5361 88.982 39.2618 88.6669 39.0536C88.3622 38.8447 87.8684 38.7319 87.394 38.8961C86.924 39.0473 86.5203 39.5036 86.5256 40.0355C86.5203 40.5674 86.924 41.0241 87.394 41.1752C87.8684 41.3395 88.3622 41.2263 88.6669 41.0177C88.982 40.8096 89.1304 40.5353 89.1942 40.3454C89.2593 40.1518 89.2624 40.0351 89.2823 40.0355C89.2932 40.0347 89.3214 40.1526 89.2802 40.3647C89.2389 40.5721 89.1031 40.8848 88.7641 41.1333C88.4373 41.3822 87.877 41.533 87.3233 41.3533C86.7747 41.1903 86.2929 40.6588 86.2999 40.0351C86.2934 39.4114 86.7747 38.8803 87.3233 38.7173C87.8766 38.538 88.4369 38.6884 88.7641 38.9373C89.1031 39.1858 89.2389 39.4985 89.2802 39.7058C89.3214 39.9183 89.2932 40.0363 89.2823 40.0355Z" fill="#263238"/>
<path d="M132.296 38.8009L136.243 38.59C137.907 40.002 140.005 41.0258 142.397 41.4623C149.276 42.7176 155.969 38.6501 157.345 32.3776C158.722 26.105 154.261 20.0023 147.383 18.747C140.504 17.4917 133.811 21.5587 132.434 27.8317C131.86 30.4507 132.305 33.0389 133.517 35.2582L133.512 35.2535L132.296 38.8009Z" fill="white"/>
<path d="M132.3 38.822C132.3 38.822 132.322 38.748 132.372 38.5972C132.423 38.4413 132.498 38.2165 132.596 37.9213C132.798 37.3154 133.097 36.425 133.485 35.2662L133.502 35.2164L133.541 35.2552L133.546 35.2599L133.492 35.2931C132.762 33.963 132.067 32.0544 132.148 29.7298C132.167 29.1516 132.238 28.5516 132.366 27.9394C132.527 27.3347 132.668 26.6996 132.944 26.0814C133.447 24.834 134.22 23.5827 135.295 22.4639C136.365 21.3455 137.735 20.3621 139.335 19.6549C140.932 18.9465 142.76 18.5183 144.666 18.4823C146.57 18.4352 148.54 18.8254 150.355 19.6047C152.168 20.3859 153.838 21.5731 155.08 23.1106C155.235 23.3045 155.395 23.4948 155.545 23.6899C155.68 23.8945 155.814 24.0991 155.948 24.3029L156.149 24.6084L156.318 24.9286C156.43 25.1423 156.541 25.3552 156.652 25.5677C156.755 25.7834 156.832 26.0082 156.923 26.227C157.005 26.4487 157.112 26.6628 157.164 26.8915C157.286 27.3438 157.438 27.7875 157.494 28.2469C157.82 30.0658 157.659 31.9044 157.099 33.5736C156.526 35.2413 155.557 36.7301 154.355 37.9328C153.154 39.139 151.726 40.0611 150.242 40.6844C148.756 41.3104 147.217 41.6365 145.758 41.7248C145.028 41.7853 144.318 41.7378 143.635 41.7002C142.959 41.6041 142.3 41.538 141.688 41.3797C139.218 40.7908 137.407 39.6459 136.226 38.6332L136.25 38.6411C134.964 38.7021 133.974 38.7488 133.301 38.7804C132.974 38.7951 132.724 38.8062 132.55 38.8141C132.382 38.8204 132.3 38.822 132.3 38.822C132.3 38.822 132.391 38.8141 132.562 38.8034C132.737 38.7923 132.989 38.7769 133.321 38.7563C133.989 38.7163 134.97 38.6582 136.245 38.5822L136.259 38.5814L136.269 38.5901C137.453 39.5893 139.26 40.7164 141.712 41.291C142.321 41.4458 142.974 41.5087 143.645 41.6021C144.323 41.6365 145.026 41.6816 145.75 41.6195C147.194 41.5281 148.718 41.2008 150.187 40.5779C151.655 39.9578 153.066 39.0424 154.252 37.8477C155.438 36.6561 156.393 35.1831 156.958 33.5341C157.509 31.883 157.666 30.0658 157.344 28.2691C157.289 27.8152 157.138 27.3767 157.017 26.9299C156.966 26.7039 156.861 26.4922 156.779 26.2733C156.689 26.0569 156.612 25.8353 156.511 25.6219C156.401 25.4118 156.291 25.2017 156.181 24.9903L156.014 24.6741L155.815 24.3726C155.683 24.1712 155.55 23.9693 155.417 23.7671C155.268 23.574 155.11 23.386 154.957 23.1948C153.73 21.6756 152.08 20.5026 150.29 19.7297C148.497 18.9592 146.55 18.5714 144.667 18.6165C142.784 18.6501 140.976 19.0712 139.395 19.7697C137.811 20.4666 136.454 21.437 135.391 22.5419C134.325 23.6468 133.555 24.8843 133.053 26.119C132.777 26.7304 132.635 27.3597 132.473 27.9588C132.344 28.5655 132.271 29.1599 132.249 29.7337C132.158 32.0393 132.836 33.9389 133.55 35.2674L133.655 35.4625L133.497 35.3011L133.492 35.2963L133.547 35.2852C133.145 36.4305 132.837 37.3106 132.627 37.9098C132.522 38.2066 132.442 38.433 132.386 38.5897C132.331 38.7413 132.3 38.822 132.3 38.822Z" fill="#263238"/>
<path d="M140.972 27.8235H142.781C142.781 27.8235 142.781 26.4387 144.359 26.4138C145.179 26.4008 145.604 26.8907 145.777 27.2655C145.977 27.7012 145.917 28.1974 145.648 28.6015C145.341 29.0629 144.669 29.482 143.45 29.2861V33.0049H145.238V30.8264C145.238 30.8264 147.747 30.2351 147.747 27.7142C147.747 25.3022 145.375 24.7422 144.359 24.7422C143.583 24.7426 140.938 24.9135 140.972 27.8235Z" fill="#FF725E"/>
<path d="M145.261 33.8008H143.446V35.3466H145.261V33.8008Z" fill="#FF725E"/>
<path d="M96.5498 105.849C107.704 109.357 122.359 111.115 129.879 104.361L127.442 53.1602H99.0371L96.5498 105.849Z" fill="#E0E0E0"/>
<path d="M118.01 79.7977C118.051 79.84 116.088 81.5184 113.625 83.5462C111.16 85.5748 109.129 87.1843 109.088 87.1419C109.046 87.0996 111.009 85.4216 113.473 83.393C115.937 81.3652 117.968 79.7553 118.01 79.7977Z" fill="#263238"/>
<path opacity="0.3" d="M107.445 108.381C107.445 108.381 108.162 65.3833 107.214 63.2874C106.266 61.1916 102.888 107.757 103.182 107.757L107.445 108.381Z" fill="black"/>
<path d="M95.6669 64.0171L94.2277 85.7L93.1853 107.481C96.2719 109.63 100.47 110.749 105.484 111.113L107.444 67.1059V50.225L107.095 50.0098L104.699 51.8975L104.151 51.9509C103.767 51.2322 103.163 51.4982 103.163 51.4982C102.972 51.2053 102.697 51.1523 102.697 51.1523C102.121 51.0723 101.765 51.4982 101.765 51.4982L101.326 51.0723C100.613 50.8859 100.207 51.6889 100.207 51.6889C93.9439 52.3221 93.0954 55.6776 92.1172 57.8087L95.6669 64.0171Z" fill="#FF725E"/>
<path d="M97.5024 64.4421C97.436 64.6241 96.9031 76.8324 96.9031 76.8324C96.9031 76.8324 98.3683 78.2294 97.8357 80.0514C97.3028 81.8734 96.3293 86.0766 93.6854 86.2598C89.9773 86.5171 86.5122 84.5459 86.5791 78.4724C86.6459 72.3989 92.0588 57.8086 92.0588 57.8086L98.4351 61.9311L97.5024 64.4421Z" fill="#FF725E"/>
<path d="M118.921 49.4199C118.921 49.4199 121.133 50.7294 121.778 51.6848L123.379 51.6721C123.66 51.646 123.958 51.3523 124.32 51.3634C124.535 51.3698 124.792 51.6693 125.027 51.6875C125.227 51.7034 125.389 51.3796 125.601 51.4034C126.047 51.4537 126.379 51.7263 126.852 51.8328C128.644 52.2356 130.634 52.7889 131.573 53.4023C134.001 54.9884 134.816 57.803 134.816 57.803C134.816 57.803 128.261 64.2504 128.718 64.5552C129.174 64.8599 128.926 81.0169 128.926 81.0169C128.926 81.0169 131.35 105.647 130.705 106.455C130.061 107.264 123.55 110.862 117.425 110.546C117.425 110.546 117.227 107.42 117.735 100.068C118.5 89.0133 118.415 85.0389 118.629 81.0585C118.975 74.6403 118.569 62.5293 118.635 60.5198C118.684 59.0678 118.77 49.4532 118.921 49.4199Z" fill="#FF725E"/>
<g opacity="0.3">
<path d="M127.98 76.9375C126.909 78.566 126.461 80.5285 126.733 82.4114C127.004 84.2944 127.992 86.0847 129.488 87.4061V84.8963L128.199 77.5169L127.98 76.9375Z" fill="black"/>
</g>
<path d="M134.819 57.7988C134.819 57.7988 137.111 73.5601 138.306 75.0149C139.501 76.4696 139.106 78.5232 138.797 80.5221C138.459 82.7093 137.258 87.9062 132.7 87.5489C130.309 87.3613 128.888 85.7831 128.072 83.4292C126.656 79.3443 128.491 74.5226 128.491 73.4137C128.49 72.3048 127.048 64.0365 127.217 63.6032C127.386 63.1699 134.819 57.7988 134.819 57.7988Z" fill="#FF725E"/>
<path d="M107.366 60.5716C107.353 60.5783 107.268 60.456 107.11 60.2356C106.951 60.0183 106.726 59.693 106.367 59.3562C106.189 59.1888 105.971 59.0234 105.706 58.898C105.447 58.7686 105.125 58.7104 104.784 58.676C104.105 58.615 103.32 58.7377 102.627 59.1133L102.376 59.2494L102.464 58.9945C102.571 58.6823 102.679 58.3534 102.786 58.0166C103.296 56.3466 103.757 54.8368 104.108 53.6868C104.272 53.1648 104.409 52.7259 104.519 52.3761C104.62 52.0678 104.683 51.8988 104.698 51.9024C104.714 51.906 104.679 52.0817 104.604 52.3963C104.529 52.7109 104.413 53.1644 104.263 53.7236C103.961 54.8416 103.533 56.383 103.003 58.074C102.896 58.412 102.787 58.742 102.676 59.0575L102.513 58.9387C104.003 58.1461 105.817 58.4484 106.474 59.264C106.831 59.6273 107.038 59.9677 107.179 60.1984C107.316 60.4323 107.377 60.5656 107.366 60.5716Z" fill="#263238"/>
<g opacity="0.3">
<path d="M120.182 59.0177C120.881 58.7276 121.704 58.7284 122.441 58.9243L122.451 58.9572C122.658 59.478 122.803 60.0193 122.883 60.5686C121.633 59.9002 120.042 59.6216 118.76 60.2374C119.184 59.6782 119.483 59.3078 120.182 59.0177Z" fill="black"/>
</g>
<path d="M118.633 60.3187C118.623 60.3128 118.695 60.1925 118.861 59.9922C119.028 59.794 119.288 59.5118 119.687 59.2277C119.886 59.0868 120.122 58.9459 120.402 58.8359C120.683 58.7259 121.018 58.6685 121.362 58.6717C122.053 58.6677 122.833 58.9008 123.453 59.4042L123.27 59.4924C123.2 59.044 123.109 58.5723 123.017 58.0891C122.668 56.3443 122.351 54.7664 122.111 53.5673C122.006 53.0192 121.918 52.5594 121.848 52.1945C121.79 51.8696 121.766 51.6883 121.781 51.6856C121.796 51.6828 121.85 51.8585 121.935 52.1787C122.019 52.4988 122.133 52.9638 122.268 53.5392C122.537 54.6909 122.895 56.2837 123.24 58.0535C123.332 58.5387 123.421 59.0108 123.488 59.4659L123.529 59.7382L123.306 59.5542C122.733 59.082 122.008 58.8549 121.36 58.847C120.7 58.8157 120.166 59.0725 119.772 59.3321C118.984 59.8656 118.665 60.3452 118.633 60.3187Z" fill="#263238"/>
<g opacity="0.3">
<path d="M98.9661 80.3469C97.5135 80.2136 96.0063 80.7292 95.0081 81.7004C94.0099 82.6715 93.5437 84.0768 93.7837 85.3899C93.8562 85.3527 94.2729 85.2047 94.2729 85.2047L94.147 87.1435C95.7923 86.9365 97.3881 85.9804 98.2869 84.7073C99.1857 83.4341 99.4405 81.7985 98.9661 80.3469Z" fill="black"/>
</g>
<path d="M93.6855 86.2777C95.0279 86.17 96.2874 85.4842 97.1875 84.5083C98.088 83.5324 98.6444 82.2838 98.8988 80.9949C99.1843 79.5468 99.0684 77.9437 98.1727 76.7553C97.2608 75.5451 95.9476 75.0449 94.4871 74.5664" fill="#FF725E"/>
<path d="M94.4861 74.5699C94.4908 74.5576 94.7295 74.6178 95.1527 74.7535C95.5719 74.894 96.1895 75.0978 96.8726 75.4987C97.5506 75.8957 98.2792 76.5411 98.7028 77.4565C99.1268 78.3667 99.2349 79.4748 99.0791 80.5896C98.9198 81.7064 98.5418 82.742 98.0084 83.5905C97.4807 84.4433 96.7871 85.09 96.1192 85.5067C95.4513 85.9298 94.8172 86.1264 94.378 86.2131C94.1575 86.257 93.9831 86.2756 93.865 86.2824C93.7465 86.2883 93.6845 86.2879 93.6836 86.2808C93.6814 86.2622 93.9292 86.2424 94.3567 86.1351C94.7812 86.0263 95.3888 85.8138 96.0268 85.3876C96.6648 84.9669 97.3236 84.3317 97.827 83.4971C98.3357 82.6672 98.6993 81.6537 98.8547 80.5635C99.0066 79.4763 98.9059 78.4039 98.5101 77.5293C98.1165 76.6523 97.4308 76.0207 96.7832 75.6194C96.1301 75.2138 95.5277 74.9902 95.1201 74.8279C94.7096 74.67 94.4804 74.5842 94.4861 74.5699Z" fill="#263238"/>
<path d="M95.4969 61.2618C95.5147 61.257 95.618 61.5238 95.7859 62.0014C95.9617 62.5206 96.1913 63.199 96.4643 64.0067L96.4678 64.017V64.03C96.4799 65.1979 96.4942 66.6221 96.5103 68.164C96.5294 70.0813 96.5463 71.8155 96.5593 73.125C96.5637 73.7293 96.5676 74.2339 96.5702 74.6284C96.5702 74.9834 96.5628 75.1805 96.5476 75.1809C96.532 75.1813 96.5094 74.9858 96.4825 74.6312C96.4552 74.2766 96.4265 73.7633 96.3996 73.1286C96.3454 71.859 96.302 70.1043 96.2842 68.1659C96.2698 66.6138 96.272 65.1793 96.2855 64.03L96.2889 64.053C96.0459 63.2373 95.8419 62.5519 95.6857 62.0279C95.5481 61.5424 95.4791 61.2665 95.4969 61.2618Z" fill="#263238"/>
<path d="M130.539 61.7327C130.553 61.7418 130.414 61.9444 130.151 62.3014C129.858 62.6888 129.478 63.1926 129.021 63.7981L129.037 63.7534C129.043 64.9992 128.99 66.6538 128.891 68.4612C128.779 70.4248 128.678 72.2009 128.601 73.5393C128.569 74.1591 128.543 74.6759 128.522 75.0784C128.503 75.4421 128.485 75.6431 128.469 75.6427C128.454 75.6427 128.442 75.4413 128.434 75.0768C128.427 74.7127 128.428 74.1852 128.441 73.5342C128.467 72.2318 128.557 70.4343 128.665 68.4509C128.764 66.6443 128.837 64.994 128.866 63.7518L128.866 63.7261L128.881 63.7071C129.363 63.1178 129.764 62.6275 130.073 62.2503C130.36 61.9092 130.525 61.724 130.539 61.7327Z" fill="#263238"/>
<path d="M133.634 87.5462C133.634 87.5605 133.375 87.5633 132.902 87.5553C132.437 87.5019 131.738 87.4342 130.971 87.0793C130.209 86.7322 129.415 86.0958 128.831 85.2165C128.242 84.3391 127.836 83.2615 127.578 82.1119C127.298 80.9603 127.283 79.8181 127.421 78.807C127.558 77.7927 127.856 76.9059 128.182 76.1955C128.515 75.4863 128.876 74.9521 129.157 74.6066C129.289 74.4285 129.414 74.3054 129.492 74.218C129.573 74.1321 129.618 74.0894 129.624 74.0941C129.672 74.1218 128.951 74.8345 128.33 76.2509C128.028 76.9573 127.751 77.8327 127.628 78.8296C127.504 79.8245 127.525 80.9385 127.799 82.0699C128.054 83.2045 128.447 84.2612 129.009 85.118C129.567 85.9767 130.317 86.5972 131.045 86.9499C131.777 87.3096 132.455 87.3982 132.911 87.4754C133.375 87.5075 133.634 87.532 133.634 87.5462Z" fill="#263238"/>
<g opacity="0.3">
<path d="M105.635 58.797C104.937 58.5069 104.113 58.5077 103.376 58.7036L103.367 58.7365C103.16 59.2573 103.014 59.7986 102.935 60.3479C104.184 59.6795 105.814 59.6455 107.097 60.2613C106.774 59.6261 106.335 59.0871 105.635 58.797Z" fill="black"/>
</g>
<path d="M111.627 26.5859L111.14 26.6041C106.238 26.7882 102.314 30.374 102.122 34.8443C101.943 39.002 101.804 43.0608 101.935 45.2825C102.206 49.8826 107.387 50.3353 107.387 50.3353C107.399 50.3353 107.379 51.9341 107.377 53.286C109.725 56.9079 115.353 57.2771 118.134 53.92L118.756 53.208L119.522 35.5863C119.756 30.7903 116.892 26.6679 111.627 26.5859Z" fill="#FFBF9D"/>
<path d="M107.394 50.3652C107.394 50.3652 110.583 50.4154 113.886 48.3457C113.886 48.3457 112.461 51.8655 107.406 51.6411L107.394 50.3652Z" fill="#FF9A6C"/>
<path d="M104.448 38.3671C104.45 38.7145 104.775 38.9995 105.173 39.0042C105.571 39.0086 105.892 38.7312 105.89 38.3837C105.887 38.0362 105.563 37.7509 105.165 37.7462C104.767 37.7414 104.446 38.0196 104.448 38.3671Z" fill="#263238"/>
<path d="M103.311 36.8646C103.404 36.947 103.933 36.5579 104.709 36.5306C105.483 36.493 106.069 36.8358 106.15 36.7459C106.189 36.7059 106.091 36.5548 105.836 36.3992C105.585 36.2449 105.161 36.1009 104.678 36.121C104.195 36.142 103.796 36.3193 103.57 36.4942C103.339 36.6699 103.265 36.8278 103.311 36.8646Z" fill="#263238"/>
<path d="M111.605 38.3596C111.607 38.7071 111.931 38.992 112.33 38.9964C112.727 39.0008 113.048 38.7237 113.046 38.3759C113.044 38.0284 112.719 37.7431 112.321 37.7383C111.923 37.734 111.602 38.0118 111.605 38.3596Z" fill="#263238"/>
<path d="M110.876 36.7239C110.969 36.8063 111.5 36.4173 112.275 36.3899C113.049 36.3527 113.635 36.6951 113.715 36.6052C113.755 36.5653 113.658 36.4141 113.401 36.259C113.15 36.1042 112.727 35.9606 112.244 35.9803C111.761 36.0009 111.361 36.1786 111.135 36.3531C110.905 36.5292 110.83 36.6871 110.876 36.7239Z" fill="#263238"/>
<path d="M108.352 42.2369C108.354 42.1965 107.868 42.1387 107.083 42.077C106.883 42.0659 106.695 42.037 106.656 41.9151C106.603 41.7865 106.677 41.5886 106.764 41.3749C106.93 40.9309 107.104 40.4651 107.287 39.9776C108.012 37.9886 108.528 36.3565 108.44 36.3304C108.352 36.3047 107.693 37.8956 106.968 39.8842C106.794 40.3745 106.628 40.8419 106.469 41.2891C106.404 41.4972 106.285 41.7351 106.399 42.0018C106.458 42.1348 106.608 42.2274 106.736 42.2535C106.865 42.284 106.977 42.282 107.075 42.2836C107.863 42.2927 108.351 42.2772 108.352 42.2369Z" fill="#263238"/>
<path d="M111.109 33.2043C111.194 33.3939 111.964 33.2744 112.879 33.3412C113.795 33.3915 114.539 33.6076 114.652 33.4307C114.703 33.346 114.567 33.1699 114.262 32.9946C113.96 32.8193 113.482 32.6598 112.934 32.6242C112.385 32.5897 111.888 32.6871 111.562 32.822C111.233 32.9566 111.072 33.1141 111.109 33.2043Z" fill="#263238"/>
<path d="M103.545 33.5992C103.713 33.754 104.338 33.5644 105.097 33.5288C105.855 33.473 106.504 33.5858 106.645 33.4125C106.706 33.3286 106.598 33.1714 106.31 33.0294C106.027 32.8877 105.558 32.7808 105.037 32.8121C104.516 32.8438 104.07 33.0056 103.813 33.1798C103.552 33.3547 103.47 33.5233 103.545 33.5992Z" fill="#263238"/>
<path d="M119.264 39.0022C119.348 38.965 122.69 37.9361 122.722 41.087C122.754 44.2379 119.001 43.7262 118.994 43.636C118.987 43.5457 119.264 39.0022 119.264 39.0022Z" fill="#FFBF9D"/>
<path d="M120.31 42.315C120.325 42.3048 120.371 42.353 120.473 42.3946C120.572 42.435 120.743 42.4623 120.923 42.3989C121.286 42.2739 121.588 41.7428 121.599 41.1745C121.605 40.8876 121.536 40.6153 121.423 40.3901C121.315 40.1606 121.15 40.0007 120.966 39.9726C120.782 39.9358 120.653 40.0371 120.612 40.1262C120.567 40.2148 120.589 40.2774 120.571 40.2829C120.561 40.2908 120.496 40.2307 120.523 40.1005C120.536 40.0375 120.576 39.9631 120.657 39.9018C120.739 39.8397 120.861 39.8072 120.989 39.8187C121.255 39.8333 121.498 40.0549 121.623 40.3019C121.762 40.55 121.847 40.8563 121.84 41.1785C121.825 41.8136 121.474 42.4108 120.976 42.5466C120.733 42.6063 120.53 42.5414 120.424 42.4678C120.317 42.391 120.298 42.321 120.31 42.315Z" fill="#FF9A6C"/>
<path d="M95.1405 30.6605C95.193 30.4745 95.3392 30.3202 95.5198 30.2205C95.913 30.0032 96.3691 30.027 96.8101 30.0159C97.9063 29.9886 98.9909 29.7214 99.9626 29.2588C99.6198 29.1049 99.299 28.9169 99.0256 28.6735C98.4606 28.1713 98.1299 27.3964 98.3772 26.7134C98.4237 26.5852 98.5035 26.4506 98.6446 26.4091C98.8681 26.3438 99.0673 26.5428 99.2257 26.7007C99.7469 27.2195 100.225 27.44 100.992 27.3612C101.468 27.3122 101.929 27.2101 102.301 26.9932C102.316 26.9789 102.329 26.9631 102.344 26.9489C102.521 26.7779 102.695 26.6145 102.866 26.4566C102.866 26.4566 102.867 26.4558 102.867 26.455L102.867 26.4562C104.152 25.2669 105.26 24.4406 106.405 24.0065C108.085 23.3698 110.903 23.0896 112.667 23.492C114.431 23.8949 116.027 25.1795 116.292 26.8202C117.269 26.0497 118.751 26.0406 119.957 26.4684L119.987 26.4562C121.331 26.8772 122.107 28.1583 122.518 29.3985C122.54 29.4662 122.56 29.535 122.581 29.6035C123.041 30.2529 123.663 30.8066 124.402 31.1885C124.532 31.2557 124.681 31.3385 124.698 31.4738C124.716 31.608 124.593 31.7211 124.473 31.8011C124.155 32.014 123.783 32.1553 123.395 32.2225C123.521 32.517 123.669 32.8027 123.85 33.0754C124.004 33.3069 124.186 33.5847 124.057 33.8285C123.958 34.0172 123.697 34.0972 123.469 34.0691C123.242 34.041 123.039 33.9286 122.844 33.8186C122.997 34.1427 123.15 34.4672 123.304 34.7913C122.821 34.8732 122.319 34.8432 121.847 34.7177C121.577 35.8844 121.391 38.0412 121.072 38.8335C120.155 38.8576 119.931 38.7689 119.47 38.9138C118.874 39.101 119.115 40.0646 118.332 39.7983C117.934 39.6625 117.308 38.2988 117.171 37.9323C116.261 35.4981 115.936 32.8842 116.222 30.3257C115.661 29.7927 114.987 29.3593 114.247 29.0574L114.308 29.1061C112.89 28.6735 111.286 28.2497 109.953 28.8682C108.919 29.3483 108.32 30.3384 107.552 31.1315C106.098 32.6345 104.44 33.4462 102.244 33.555C102.064 34.948 102.033 37.2236 101.975 38.5224L100.727 35.9366L100.726 35.9473C100.626 35.7961 100.543 35.6434 100.463 35.4906L100.435 35.4443V35.4384C100.307 35.1926 100.186 34.9465 100.025 34.7043C100.021 34.7078 100.016 34.7118 100.012 34.7153C99.2483 35.3438 98.0999 34.4071 98.6988 33.6445C98.8177 33.4933 98.9601 33.3579 99.1237 33.2459C98.7752 33.5515 98.2514 33.7014 97.7874 33.5768C97.3235 33.4521 96.9598 33.0295 96.9941 32.5894C97.0179 32.2894 97.2497 32.0187 97.5453 31.8969C96.9229 31.9471 96.284 31.83 95.7376 31.5529C95.3779 31.3713 95.025 31.0701 95.1405 30.6605Z" fill="#263238"/>
<path d="M114.722 27.3809C114.712 27.3927 114.935 27.5008 115.235 27.7988C115.531 28.0956 115.866 28.6136 116.03 29.322C116.114 29.6738 116.169 30.068 116.174 30.4926C116.181 30.9172 116.149 31.3723 116.119 31.852C116.092 32.3316 116.06 32.8382 116.1 33.3645C116.121 33.6273 116.159 33.8944 116.225 34.1611C116.291 34.4231 116.371 34.7077 116.591 34.9313C116.767 35.1137 117.057 35.1921 117.308 35.1426C117.56 35.0991 117.783 34.9744 117.946 34.805C118.267 34.4556 118.342 34.0155 118.418 33.6277L118.312 33.6403C118.49 33.9866 118.673 34.3281 118.94 34.6C119.203 34.8735 119.564 35.0524 119.93 35.0785C120.111 35.0915 120.295 35.063 120.45 34.9898C120.608 34.9174 120.722 34.7959 120.8 34.6681C120.874 34.5379 120.912 34.3954 120.903 34.2585C120.892 34.1216 120.832 33.9926 120.736 33.9015L120.683 33.9459C121.078 34.3467 121.492 34.5601 121.778 34.678C121.923 34.737 122.038 34.7718 122.117 34.7939C122.195 34.8141 122.236 34.8228 122.238 34.8201C122.238 34.8169 122.199 34.8026 122.123 34.7769C122.047 34.7496 121.935 34.7096 121.795 34.6463C121.517 34.5205 121.116 34.3012 120.737 33.9031L120.684 33.9474C120.856 34.1101 120.87 34.3986 120.726 34.6325C120.653 34.7476 120.549 34.8561 120.409 34.9174C120.271 34.9811 120.104 35.0061 119.937 34.9926C119.601 34.9657 119.265 34.7979 119.019 34.5379C118.766 34.2783 118.59 33.9455 118.414 33.5988L118.34 33.452L118.308 33.6118C118.232 33.9993 118.151 34.4219 117.858 34.737C117.713 34.8885 117.508 35.0013 117.287 35.0389C117.066 35.0805 116.832 35.016 116.678 34.86C116.486 34.6665 116.405 34.3974 116.34 34.1394C116.275 33.879 116.238 33.6178 116.217 33.3594C116.175 32.8417 116.204 32.3383 116.229 31.8595C116.256 31.3799 116.284 30.9228 116.273 30.493C116.263 30.0632 116.203 29.6639 116.112 29.3073C115.935 28.5903 115.581 28.0659 115.269 27.773C114.953 27.4758 114.722 27.3809 114.722 27.3809Z" fill="#455A64"/>
<path d="M99.13 32.0445C99.1287 32.0457 99.1426 32.0564 99.1708 32.0754C99.205 32.0976 99.2471 32.1249 99.2979 32.1581C99.3535 32.1953 99.4242 32.2385 99.5136 32.2812C99.6017 32.3259 99.7015 32.3805 99.8231 32.4257C100.295 32.6243 101.051 32.8186 101.992 32.7581C102.924 32.7007 104.04 32.3877 105.031 31.6987C106.034 31.0259 106.908 30.0405 107.619 28.9154C107.98 28.3534 108.273 27.7776 108.596 27.2458C108.918 26.7135 109.275 26.2208 109.709 25.8302C110.138 25.4376 110.639 25.1455 111.156 25.0086C111.414 24.9358 111.675 24.9172 111.923 24.92C112.173 24.9295 112.41 24.973 112.629 25.0359C113.066 25.1649 113.421 25.3806 113.69 25.6038C113.961 25.829 114.143 26.068 114.27 26.273C114.505 26.6945 114.521 26.9664 114.539 26.9616C114.541 26.9612 114.54 26.945 114.534 26.9133C114.527 26.8749 114.519 26.8286 114.509 26.7724C114.482 26.6494 114.422 26.4709 114.31 26.2536C114.188 26.0419 114.008 25.7942 113.735 25.5595C113.464 25.3272 113.104 25.1008 112.655 24.9635C112.431 24.8962 112.186 24.8487 111.927 24.8369C111.67 24.8313 111.396 24.8495 111.129 24.9227C110.591 25.0612 110.073 25.36 109.632 25.7597C109.185 26.1579 108.821 26.6589 108.495 27.1947C108.167 27.7305 107.875 28.3048 107.517 28.8616C106.811 29.9784 105.949 30.9523 104.966 31.6187C103.993 32.3014 102.904 32.6148 101.986 32.6817C101.061 32.7506 100.314 32.5713 99.8417 32.3865C99.3661 32.1997 99.1391 32.0311 99.13 32.0445Z" fill="#455A64"/>
<path d="M98.6447 30.0405C98.6408 30.0468 98.7059 30.0868 98.8274 30.1537C98.9481 30.2225 99.1325 30.3072 99.3677 30.3967C99.6021 30.4881 99.8924 30.5728 100.221 30.6424C100.551 30.7069 100.921 30.7536 101.31 30.7627C101.7 30.7679 102.072 30.7354 102.404 30.6836C102.736 30.6262 103.029 30.5526 103.268 30.4703C103.507 30.3895 103.695 30.312 103.818 30.2475C103.943 30.1853 104.01 30.1477 104.006 30.1414C103.996 30.1232 103.719 30.257 103.241 30.3979C103.002 30.4703 102.712 30.5348 102.386 30.5854C102.059 30.6309 101.695 30.6598 101.313 30.6547C100.931 30.6456 100.569 30.6028 100.244 30.5451C99.9211 30.4817 99.6333 30.4066 99.3986 30.3254C98.9272 30.1671 98.6555 30.0231 98.6447 30.0405Z" fill="#455A64"/>
<path d="M111.196 43.9136C111.157 43.9365 111.097 43.7149 110.824 43.6088C110.686 43.5586 110.509 43.5669 110.29 43.6045C110.073 43.635 109.835 43.6738 109.588 43.7224C108.596 43.9136 107.83 44.206 107.803 44.1506C107.775 44.1043 108.518 43.7189 109.541 43.521C109.795 43.4711 110.04 43.4371 110.264 43.4165C110.48 43.3888 110.722 43.3896 110.891 43.4771C111.063 43.5614 111.143 43.6904 111.176 43.7739C111.209 43.859 111.208 43.9096 111.196 43.9136Z" fill="#263238"/>
<path d="M84.05 66.759C84.1485 66.8939 84.8381 67.6577 84.9861 68.4211C85.1341 69.1849 87.0099 79.1101 87.499 80.4885C88.1105 82.2116 89.3726 85.721 94.3965 84.4044C97.8746 83.493 97.9931 78.6641 95.6282 76.0134C93.2634 73.3627 89.3218 65.7704 89.0262 64.7818C88.7307 63.7936 85.9223 60.8105 82.6703 60.0333C79.4188 59.256 77.7926 59.2252 76.6104 57.8033C75.4277 56.381 73.9499 55.6623 73.2599 56.7403C72.5703 57.8187 76.6104 61.0531 76.6104 61.0531L82.2762 65.9952L84.05 66.759Z" fill="#FFBF9D"/>
<path d="M73.1804 60.8579C73.1804 60.8579 70.678 58.0683 69.0479 59.2413C69.0479 59.2413 71.1636 61.8224 71.8784 62.5264C72.5932 63.2304 74.452 63.7259 74.452 63.7259C74.452 63.7259 76.3104 65.6813 77.3112 65.9421C78.312 66.2029 78.9409 65.9421 78.9409 65.9421C78.9409 65.9421 78.9695 66.3853 80.5419 66.5938C82.1143 66.8024 86.2894 66.4114 86.2894 66.4114L88.8669 64.4418C88.8669 64.4418 87.5762 62.4742 85.6032 62.4219C83.6303 62.3697 82.172 63.7516 82.172 63.7516L80.4564 63.7255L79.3983 62.4741C79.3983 62.4741 79.6001 59.1867 77.454 59.554C77.454 59.554 77.3772 58.5009 76.4623 58.3964C75.5474 58.2923 75.2918 59.1535 75.2918 59.1535C75.2918 59.1535 75.481 57.859 74.709 57.5982C73.9369 57.3374 73.5654 57.6504 73.3366 58.0153C73.1084 58.381 73.1804 60.8579 73.1804 60.8579Z" fill="#FFBF9D"/>
<path d="M79.14 65.9444C79.1157 65.9614 78.8344 65.6753 78.4217 65.1818C78.2168 64.934 77.9764 64.6364 77.7329 64.2882C77.6123 64.1259 77.4812 63.9031 77.4348 63.6767C77.3775 63.452 77.3462 63.2197 77.3224 62.9818C77.2399 62.0304 77.2833 61.1733 77.3219 60.5543C77.3649 59.9354 77.4231 59.5547 77.4534 59.5566C77.4851 59.5586 77.4838 59.9413 77.4816 60.5591C77.4834 61.176 77.4665 62.0316 77.5472 62.9636C77.5706 63.1955 77.6001 63.4215 77.6505 63.6312C77.6943 63.8461 77.7876 64.008 77.91 64.188C78.1392 64.5351 78.3648 64.8398 78.5519 65.0967C78.929 65.6096 79.1647 65.9269 79.14 65.9444Z" fill="#FF9A6C"/>
<path d="M75.296 64.5417C75.276 64.5571 75.0738 64.286 74.9796 63.7894C74.8759 63.2971 74.8433 62.6073 74.8819 61.853C74.9648 60.3424 75.233 59.1409 75.2942 59.1504C75.3563 59.1588 75.1896 60.3678 75.1076 61.8621C75.0694 62.6085 75.0768 63.2848 75.1376 63.7668C75.1888 64.252 75.3285 64.525 75.296 64.5417Z" fill="#FF9A6C"/>
<path d="M74.5863 63.862C74.5642 63.881 74.3042 63.6732 73.9284 63.2953C73.8351 63.2003 73.7348 63.0946 73.6311 62.9767C73.5313 62.8501 73.4128 62.7499 73.3321 62.5525C73.2214 62.2097 73.1884 61.8421 73.1546 61.4535C73.0982 60.6774 73.1034 59.9762 73.1186 59.4688C73.1359 58.9615 73.1693 58.648 73.2001 58.6484C73.2683 58.6484 73.2783 59.9033 73.3798 61.4392C73.4119 61.8195 73.4432 62.1911 73.5304 62.4943C73.5686 62.6174 73.6945 62.7574 73.7804 62.8734C73.8733 62.9862 73.9631 63.095 74.0508 63.2015C74.3915 63.5992 74.6098 63.8418 74.5863 63.862Z" fill="#FF9A6C"/>
<path d="M82.1721 63.7492C82.1717 63.7619 82.0115 63.7718 81.7168 63.7785C81.3787 63.7817 80.9586 63.7852 80.4552 63.79L80.4218 63.7904L80.3983 63.7643C80.0776 63.4029 79.5941 62.9819 79.2769 62.3712L79.2669 62.3522V62.3309C79.2682 61.8627 79.2817 61.349 79.1272 60.8437C79.049 60.5928 78.9275 60.345 78.7452 60.1341C78.5651 59.9168 78.323 59.7633 78.0252 59.7316C77.8399 59.7099 77.6477 59.7296 77.4636 59.7716L77.3317 59.8017L77.3234 59.6778C77.3061 59.4245 77.2484 59.1772 77.1112 58.9797C76.9784 58.7802 76.7675 58.6437 76.5323 58.5713C76.3148 58.4933 76.0779 58.5535 75.8826 58.6659C75.6868 58.7783 75.5263 58.9366 75.4191 59.1067L75.2567 59.3644L75.2398 59.0699C75.2138 58.6188 75.1817 58.1839 74.926 57.927C74.6682 57.673 74.2885 57.6278 74.0198 57.667C73.7408 57.7058 73.549 57.8249 73.4396 57.9187C73.3298 58.0145 73.289 58.0826 73.2773 58.0762C73.2712 58.0742 73.2942 57.9963 73.3975 57.8819C73.4999 57.7703 73.6974 57.6255 73.9999 57.5673C74.2907 57.5107 74.7173 57.5356 75.0402 57.8297C75.3592 58.1388 75.3921 58.6093 75.4312 59.0589L75.252 59.0221C75.3722 58.823 75.5471 58.6437 75.7736 58.5084C75.9919 58.3746 76.3092 58.2856 76.6021 58.3861C76.8725 58.4652 77.1377 58.6314 77.2991 58.8721C77.4654 59.1095 77.5292 59.3905 77.5487 59.6659L77.4085 59.5721C77.6121 59.5254 77.8317 59.5005 78.0547 59.527C78.4111 59.5595 78.7314 59.7688 78.9219 60.0075C79.1263 60.2461 79.2561 60.5192 79.3376 60.7898C79.4987 61.3372 79.4731 61.8651 79.4631 62.3332L79.4531 62.2929C79.7452 62.8825 80.1948 63.2945 80.5142 63.6823L80.4578 63.6566C80.9608 63.6764 81.3809 63.693 81.7181 63.7065C82.0124 63.7219 82.1721 63.7365 82.1721 63.7492Z" fill="#FF9A6C"/>
<path d="M86.6733 62.4965C86.6599 62.5602 85.6921 62.2745 84.5211 62.5282C83.345 62.7625 82.6081 63.4024 82.566 63.3497C82.5473 63.3331 82.7018 63.1491 83.0277 62.9251C83.3515 62.7011 83.8601 62.455 84.4708 62.3268C85.0819 62.2009 85.6573 62.2219 86.0553 62.2959C86.4559 62.3691 86.6824 62.474 86.6733 62.4965Z" fill="#FF9A6C"/>
<path d="M147.716 59.6901C147.483 59.5892 147.208 59.6446 146.961 59.7115C145.821 60.0206 144.759 60.5425 143.789 61.171L144.627 63.8039C144.952 63.2328 146.467 62.4876 146.999 62.0642C147.53 61.6407 148.044 61.116 148.103 60.4745C148.131 60.1701 148.018 59.8211 147.716 59.6901Z" fill="#FF9A6C"/>
<path d="M129.154 82.2812C129.154 82.2812 128.733 79.1073 129.099 76.4182C129.337 74.6682 130.928 69.4935 131.039 67.8761C131.149 66.2587 131.205 65.5004 132.314 64.7422C133.422 63.9839 133.422 64.3377 134.975 63.4786C136.526 62.6194 136.859 62.0127 139.187 61.9118C141.515 61.8109 143.345 66.3596 143.345 66.3596C143.345 66.3596 143.234 67.3201 142.79 67.5725C142.347 67.8254 141.793 67.8757 140.407 67.8254C139.021 67.7752 137.635 68.0783 137.524 68.8361C137.413 69.594 137.58 72.3741 138.134 74.2444C138.688 76.1147 138.245 78.2881 137.857 80.1077C137.469 81.9274 136.669 85.8998 133.478 86.2236C129.731 86.6035 129.154 82.2812 129.154 82.2812Z" fill="#FFBF9D"/>
<path d="M134.829 65.5178C134.829 65.5178 136.551 65.3587 136.844 65.0512C137.137 64.7437 138.09 61.7143 138.634 61.0229C139.177 60.3316 139.543 60.1934 140.132 60.3062C140.132 60.3062 140.053 58.9496 141.397 58.7533C141.397 58.7533 142.237 58.6354 142.37 60.4736C142.37 60.4736 142.226 58.7236 143.652 58.1261C144.001 57.98 144.421 58.0908 144.591 58.4047C144.627 58.4715 144.656 58.5456 144.673 58.6271C144.759 59.0482 144.873 60.9924 144.873 60.9924C144.873 60.9924 145.029 63.6439 145.071 63.5288C145.113 63.4136 146.862 59.8452 147.113 59.4997C147.335 59.1942 147.523 58.8586 148.349 58.9148C148.62 58.9334 148.853 59.0976 148.935 59.3339C148.961 59.4107 148.889 59.7957 148.86 59.9006C148.587 60.9125 147.845 63.7492 147.553 64.2098C147.261 64.6705 144.582 67.2432 143.49 67.3263C142.398 67.4094 141.768 67.3323 141.768 67.3323L134.829 65.5178Z" fill="#FFBF9D"/>
<path d="M138.392 66.8456C138.367 66.8254 138.645 66.5318 139.004 66.0058C139.179 65.7422 139.381 65.4205 139.523 65.0402C139.599 64.8502 139.645 64.6476 139.67 64.4315C139.689 64.206 139.707 63.9749 139.727 63.7378C139.808 62.7872 139.894 61.9277 139.968 61.306C140.041 60.6842 140.102 60.3008 140.133 60.3027C140.165 60.3047 140.16 60.6922 140.127 61.3174C140.094 61.9427 140.033 62.8054 139.952 63.758C139.931 63.9954 139.91 64.2269 139.89 64.4525C139.86 64.6828 139.804 64.9072 139.719 65.1047C139.557 65.5044 139.334 65.8269 139.137 66.0869C138.736 66.603 138.413 66.8638 138.392 66.8456Z" fill="#FF9A6C"/>
<path d="M142.353 60.2949C142.384 60.2945 142.42 60.6748 142.453 61.2898C142.487 61.9048 142.517 62.7541 142.537 63.6928C142.541 63.9271 142.545 64.1554 142.549 64.3782C142.545 64.5947 142.575 64.8159 142.519 65.0379C142.404 65.457 142.192 65.7776 142.016 66.0431C141.651 66.569 141.365 66.8516 141.342 66.8358C141.315 66.8176 141.555 66.5045 141.877 65.9695C142.032 65.7028 142.224 65.3751 142.315 64.9987C142.358 64.821 142.328 64.6101 142.328 64.3853C142.322 64.1625 142.317 63.9338 142.311 63.6995C142.292 62.76 142.286 61.9088 142.294 61.2926C142.301 60.6768 142.321 60.2957 142.353 60.2949Z" fill="#FF9A6C"/>
<path d="M145.024 63.274C145.052 63.2614 145.167 63.4466 145.177 63.7755C145.179 63.9401 145.162 64.1312 145.079 64.3449C144.994 64.548 144.874 64.7506 144.739 64.9583C144.194 65.7835 143.646 66.3795 143.598 66.3482C143.544 66.3138 144.009 65.6647 144.545 64.8535C144.677 64.6504 144.799 64.4542 144.886 64.2749C144.965 64.1019 145.001 63.9175 145.017 63.7707C145.048 63.4703 144.994 63.2835 145.024 63.274Z" fill="#FF9A6C"/>
<path d="M133.158 65.491C133.16 65.4023 134.822 65.6647 136.715 64.9722C136.746 64.9627 136.776 64.9532 136.805 64.9445L136.737 65.005C137.09 64.1633 137.42 63.409 137.669 62.8676C137.917 62.3262 138.085 61.9981 138.114 62.008C138.142 62.0179 138.027 62.3646 137.816 62.919C137.606 63.4735 137.3 64.2365 136.948 65.0786L136.929 65.1237L136.879 65.1392C136.85 65.1483 136.819 65.1578 136.787 65.1677C136.305 65.3133 135.84 65.4356 135.405 65.5179C134.969 65.6065 134.56 65.6121 134.229 65.6038C133.561 65.584 133.156 65.5175 133.158 65.491Z" fill="#FF9A6C"/>
</svg>
