<svg width="152" height="53" viewBox="0 0 152 53" fill="none" xmlns="http://www.w3.org/2000/svg">
<g id="Speech_Bubbles">
<g id="Group">
<g id="Group_2">
<g id="Group_3">
<g id="Group_4">
<g id="Group_5">
<g id="Group_6">
<g id="Group_7">
<path id="Vector" d="M72.694 49.6096C78.9925 48.0567 82.7179 42.142 81.0149 36.3987C79.3119 30.6554 72.8254 27.2584 66.527 28.8113C60.2285 30.3642 56.5031 36.2789 58.2061 42.0222C59.9091 47.7655 66.3956 51.1624 72.694 49.6096Z" fill="white"/>
<g id="Group_8">
<path id="Vector_2" d="M78.5518 32.177C78.5488 32.1794 78.501 32.139 78.4108 32.0579C78.3144 31.9696 78.1829 31.8489 78.0145 31.6946C77.9273 31.6139 77.8309 31.524 77.725 31.4255C77.6139 31.3309 77.482 31.2379 77.3449 31.1311C77.0688 30.9197 76.7581 30.6673 76.361 30.4397C75.6067 29.9363 74.5794 29.4492 73.3239 29.0641C72.0674 28.6858 70.5519 28.4515 68.8862 28.5516C67.2301 28.6557 65.4086 29.0696 63.722 29.9862C62.0533 30.9035 60.4523 32.2368 59.4033 34.0085C59.116 34.4379 58.912 34.9116 58.6872 35.3822C58.5878 35.622 58.5106 35.8713 58.4207 36.1174C58.3231 36.362 58.2636 36.6177 58.2046 36.8745C58.0579 37.3834 58.0106 37.9137 57.9381 38.4448C57.9251 38.9803 57.8908 39.5212 57.9576 40.0646C58.0631 41.1473 58.3053 42.2515 58.7996 43.2864C59.2787 44.3244 59.9393 45.3074 60.7561 46.1939C61.5989 47.0602 62.5702 47.7994 63.627 48.3827C64.6781 48.9795 65.8417 49.3586 67.0013 49.6111C67.5816 49.75 68.1736 49.7979 68.7564 49.864C69.3436 49.8759 69.9256 49.9099 70.4994 49.8517C70.7867 49.8359 71.0727 49.8197 71.3522 49.7667C71.6326 49.7212 71.9138 49.6875 72.1889 49.6329C72.7323 49.4983 73.2761 49.3832 73.7835 49.1861C75.8584 48.4967 77.538 47.2458 78.7758 45.8733C80.0153 44.4847 80.7288 42.9013 81.082 41.4224C81.4323 39.9344 81.398 38.5327 81.1697 37.3446C80.934 36.1562 80.5552 35.1586 80.1181 34.4055C79.9285 34.0145 79.6998 33.6971 79.5105 33.4177C79.4146 33.2788 79.3326 33.1462 79.2462 33.0322C79.1551 32.9222 79.0717 32.8225 78.9967 32.7319C78.8539 32.5577 78.7423 32.4216 78.6603 32.3219C78.5861 32.2285 78.5492 32.1794 78.5518 32.177C78.5549 32.1746 78.5974 32.219 78.6785 32.308C78.7649 32.405 78.8825 32.5371 79.0336 32.7065C79.1117 32.7956 79.198 32.8941 79.2931 33.0021C79.3829 33.1149 79.4684 33.2463 79.5678 33.384C79.764 33.6618 80.0001 33.9777 80.1975 34.369C80.6493 35.1225 81.0451 36.1254 81.2947 37.3245C81.5373 38.5236 81.5837 39.9419 81.2387 41.4525C80.8911 42.9535 80.175 44.5642 78.9225 45.9802C77.6717 47.3795 75.9687 48.6566 73.8581 49.3638C73.3421 49.5652 72.7892 49.6843 72.2358 49.8221C71.9563 49.8783 71.6694 49.9131 71.3843 49.9602C71.0996 50.014 70.8088 50.0318 70.5159 50.0484C69.9317 50.1082 69.3389 50.0753 68.7408 50.0635C68.1471 49.9974 67.5438 49.9491 66.9523 49.8082C65.7701 49.5526 64.5844 49.1663 63.5124 48.5592C62.4348 47.9652 61.4444 47.2117 60.5855 46.3288C59.7527 45.4261 59.08 44.4233 58.5922 43.3651C58.0896 42.3097 57.8426 41.1842 57.7372 40.0808C57.6703 39.5268 57.7055 38.9759 57.7203 38.4306C57.7945 37.8896 57.8444 37.3498 57.9945 36.8314C58.0549 36.5698 58.1165 36.3098 58.2163 36.0609C58.3088 35.8103 58.3877 35.5571 58.4897 35.3129C58.7193 34.8336 58.9289 34.3524 59.2223 33.9159C60.296 32.1149 61.9288 30.7638 63.6283 29.8386C65.3461 28.9137 67.1979 28.5021 68.8771 28.406C70.5658 28.3138 72.0982 28.5619 73.3642 28.9549C74.6293 29.3542 75.6596 29.8568 76.4118 30.374C76.8076 30.6087 77.1166 30.8675 77.3891 31.0852C77.5245 31.1948 77.6547 31.2913 77.7641 31.3883C77.8678 31.4896 77.962 31.5822 78.0471 31.6657C78.209 31.8264 78.3353 31.9518 78.4281 32.0437C78.5128 32.1299 78.5549 32.175 78.5518 32.177Z" fill="#263238"/>
</g>
</g>
</g>
</g>
</g>
</g>
<g id="Group_9">
<g id="Group_10">
<path id="Vector_3" d="M66.3968 36.2112H68.2682C68.2682 36.2112 68.2682 34.7786 69.9009 34.7528C70.749 34.7394 71.1886 35.2459 71.3674 35.6342C71.5749 36.0849 71.5119 36.5982 71.2342 37.0161C70.9169 37.4934 70.2212 37.9271 68.96 37.7245V41.5719H70.8106V39.3181C70.8106 39.3181 73.4059 38.7063 73.4059 36.0984C73.4059 33.6032 70.9521 33.0234 69.9014 33.0234C69.098 33.0234 66.3617 33.2007 66.3968 36.2112Z" fill="#FF725E"/>
</g>
<g id="Group_11">
<path id="Vector_4" d="M70.8335 42.3672H68.9556V43.9664H70.8335V42.3672Z" fill="#FF725E"/>
</g>
</g>
</g>
<g id="Group_12">
<path id="Vector_5" d="M85.7637 44.281C85.7637 45.0036 85.1213 45.5893 84.3288 45.5893C83.5364 45.5893 82.894 45.0036 82.894 44.281C82.894 43.5584 83.5364 42.9727 84.3288 42.9727C85.1213 42.9727 85.7637 43.5584 85.7637 44.281Z" fill="white"/>
<g id="Group_13">
<path id="Vector_6" d="M85.7628 44.2835C85.7428 44.2843 85.7398 44.1672 85.6751 43.9741C85.6113 43.7841 85.4625 43.5099 85.1474 43.3017C84.8427 43.0927 84.3488 42.98 83.8745 43.1442C83.4044 43.2954 83.0008 43.7517 83.006 44.2835C83.0008 44.8154 83.4044 45.2721 83.8745 45.4233C84.3488 45.5875 84.8427 45.4743 85.1474 45.2658C85.4625 45.0576 85.6109 44.7834 85.6747 44.5934C85.7398 44.3999 85.7428 44.2831 85.7628 44.2835C85.7736 44.2827 85.8019 44.4007 85.7606 44.6128C85.7194 44.8202 85.5836 45.1328 85.2446 45.3813C84.9178 45.6303 84.3575 45.781 83.8037 45.6014C83.2551 45.4383 82.7734 44.9068 82.7803 44.2831C82.7738 43.6594 83.2551 43.1284 83.8037 42.9653C84.3571 42.786 84.9174 42.9364 85.2446 43.1853C85.5836 43.4339 85.7194 43.7465 85.7606 43.9539C85.8019 44.1664 85.7736 44.2843 85.7628 44.2835Z" fill="#263238"/>
</g>
</g>
</g>
<g id="Group_14">
<g id="Group_15">
<g id="Group_16">
<g id="Group_17">
<g id="Group_18">
<g id="Group_19">
<g id="Group_20">
<g id="Group_21">
<g id="Group_22">
<g id="Group_23">
<g id="Group_24">
<g id="Group_25">
<g id="Group_26">
<g id="Group_27">
<g id="Group_28">
<g id="Group_29">
<path id="Vector_7" d="M126.514 20.3224L130.46 20.1115C132.124 21.5235 134.222 22.5473 136.614 22.9838C143.493 24.2391 150.186 20.1716 151.563 13.8991C152.939 7.62653 148.479 1.52376 141.6 0.268462C134.721 -0.986839 128.028 3.08022 126.652 9.35316C126.077 11.9722 126.523 14.5604 127.734 16.7797L127.73 16.775L126.514 20.3224Z" fill="white"/>
</g>
</g>
</g>
</g>
<g id="Group_30">
<g id="Group_31">
<g id="Group_32">
<g id="Group_33">
<g id="Group_34">
<path id="Vector_8" d="M126.517 20.3435C126.517 20.3435 126.539 20.2695 126.588 20.1187C126.64 19.9628 126.715 19.738 126.812 19.4428C127.015 18.8369 127.314 17.9465 127.702 16.7877L127.719 16.7379L127.758 16.7766L127.762 16.7814L127.709 16.8146C126.979 15.4845 126.283 13.5759 126.365 11.2513C126.384 10.6731 126.455 10.0731 126.583 9.46091C126.743 8.85621 126.885 8.22104 127.161 7.60289C127.663 6.3555 128.437 5.10416 129.511 3.98539C130.582 2.86702 131.951 1.8836 133.552 1.1764C135.149 0.468018 136.977 0.039824 138.882 0.00381129C140.787 -0.0432823 142.757 0.346921 144.572 1.12614C146.385 1.90734 148.055 3.09457 149.297 4.63204C149.452 4.82595 149.612 5.01631 149.762 5.21141C149.896 5.41601 150.031 5.62061 150.165 5.82442L150.366 6.12993L150.535 6.45009C150.647 6.66379 150.758 6.8767 150.869 7.08922C150.971 7.3049 151.049 7.52968 151.14 7.74853C151.222 7.97014 151.329 8.18424 151.381 8.41298C151.503 8.86532 151.655 9.30894 151.711 9.7684C152.036 11.5872 151.875 13.4259 151.316 15.0951C150.743 16.7628 149.774 18.2516 148.572 19.4542C147.371 20.6605 145.943 21.5826 144.459 22.2059C142.973 22.8319 141.434 23.158 139.975 23.2463C139.244 23.3068 138.535 23.2593 137.852 23.2217C137.175 23.1256 136.517 23.0595 135.905 22.9012C133.435 22.3123 131.624 21.1674 130.443 20.1547L130.467 20.1626C129.181 20.2236 128.191 20.2703 127.518 20.3019C127.19 20.3166 126.94 20.3277 126.767 20.3356C126.598 20.3419 126.517 20.3435 126.517 20.3435C126.517 20.3435 126.608 20.3356 126.779 20.3249C126.954 20.3138 127.206 20.2984 127.538 20.2778C128.206 20.2378 129.186 20.1796 130.462 20.1037L130.475 20.1029L130.486 20.1116C131.67 21.1108 133.476 22.2379 135.929 22.8125C136.537 22.9673 137.191 23.0302 137.862 23.1236C138.54 23.158 139.243 23.2031 139.966 23.141C141.411 23.0496 142.935 22.7223 144.404 22.0994C145.872 21.4793 147.282 20.5639 148.469 19.3692C149.655 18.1776 150.61 16.7046 151.175 15.0555C151.726 13.4045 151.882 11.5872 151.56 9.79056C151.506 9.33665 151.355 8.89816 151.234 8.45137C151.182 8.2254 151.077 8.01367 150.995 7.79483C150.905 7.57835 150.829 7.35674 150.728 7.14343C150.618 6.93329 150.508 6.72315 150.398 6.51183L150.231 6.19563L150.032 5.89407C149.899 5.69263 149.767 5.49081 149.633 5.28858C149.485 5.09546 149.327 4.90748 149.174 4.71633C147.946 3.19707 146.297 2.02409 144.507 1.2512C142.714 0.480683 140.766 0.092854 138.884 0.137969C137.001 0.171607 135.192 0.592678 133.612 1.29117C132.028 1.98807 130.671 2.95844 129.608 4.06336C128.542 5.16827 127.772 6.40576 127.27 7.64049C126.994 8.25191 126.852 8.88115 126.69 9.4803C126.561 10.087 126.487 10.6814 126.466 11.2552C126.374 13.5608 127.053 15.4604 127.767 16.7889L127.872 16.984L127.713 16.8225L127.709 16.8178L127.764 16.8067C127.362 17.952 127.054 18.8321 126.844 19.4313C126.739 19.7281 126.658 19.9545 126.603 20.1112C126.548 20.2628 126.517 20.3435 126.517 20.3435Z" fill="#263238"/>
</g>
</g>
</g>
</g>
</g>
</g>
</g>
</g>
</g>
</g>
</g>
</g>
</g>
</g>
</g>
</g>
<g id="Group_35">
<g id="Group_36">
<g id="Group_37">
<g id="Group_38">
<g id="Group_39">
<g id="Group_40">
<path id="Vector_9" d="M135.189 9.34494H136.998C136.998 9.34494 136.998 7.96023 138.577 7.93529C139.396 7.92224 139.821 8.41217 139.994 8.78694C140.195 9.22265 140.134 9.71891 139.865 10.123C139.558 10.5844 138.886 11.0035 137.667 10.8076V14.5264H139.456V12.3478C139.456 12.3478 141.964 11.7566 141.964 9.23571C141.964 6.82365 139.592 6.26367 138.577 6.26367C137.8 6.26407 135.155 6.43503 135.189 9.34494Z" fill="#FF725E"/>
</g>
</g>
</g>
</g>
<g id="Group_41">
<g id="Group_42">
<g id="Group_43">
<g id="Group_44">
<path id="Vector_10" d="M139.479 15.3223H137.664V16.868H139.479V15.3223Z" fill="#FF725E"/>
</g>
</g>
</g>
</g>
</g>
</g>
</g>
<g id="Group_45">
<g id="Group_46">
<g id="Group_47">
<g id="Group_48">
<g id="Group_49">
<g id="Group_50">
<g id="Group_51">
<g id="Group_52">
<g id="Group_53">
<g id="Group_54">
<g id="Group_55">
<g id="Group_56">
<g id="Group_57">
<g id="Group_58">
<g id="Group_59">
<g id="Group_60">
<path id="Vector_11" d="M0.277686 32.3224L4.22448 32.1115C5.888 33.5235 7.98639 34.5473 10.3786 34.9838C17.2575 36.2391 23.9502 32.1716 25.3269 25.8991C26.7035 19.6265 22.2429 13.5238 15.364 12.2685C8.48505 11.0132 1.79234 15.0802 0.415695 21.3532C-0.158921 23.9722 0.286795 26.5604 1.49852 28.7797L1.49375 28.775L0.277686 32.3224Z" fill="white"/>
</g>
</g>
</g>
</g>
<g id="Group_61">
<g id="Group_62">
<g id="Group_63">
<g id="Group_64">
<g id="Group_65">
<path id="Vector_12" d="M0.281 32.3435C0.281 32.3435 0.302691 32.2695 0.352601 32.1187C0.404247 31.9628 0.478904 31.738 0.576554 31.4428C0.779232 30.8369 1.07782 29.9465 1.46581 28.7877L1.48274 28.7379L1.5218 28.7766L1.52658 28.7814L1.47277 28.8146C0.742777 27.4845 0.0475054 25.5759 0.129097 23.2513C0.147759 22.6731 0.218928 22.0731 0.346958 21.4609C0.507538 20.8562 0.649023 20.221 0.925047 19.6029C1.42762 18.3555 2.20101 17.1042 3.2756 15.9854C4.34628 14.867 5.71554 13.8836 7.3157 13.1764C8.91282 12.468 10.7413 12.0398 12.6465 12.0038C14.5513 11.9567 16.5208 12.3469 18.3363 13.1261C20.1491 13.9073 21.8187 15.0946 23.0612 16.632C23.2162 16.826 23.3759 17.0163 23.526 17.2114C23.6606 17.416 23.7951 17.6206 23.9292 17.8244L24.1302 18.1299L24.2994 18.4501C24.411 18.6638 24.5221 18.8767 24.6332 19.0892C24.7356 19.3049 24.8133 19.5297 24.904 19.7485C24.9864 19.9701 25.0928 20.1842 25.1453 20.413C25.2672 20.8653 25.4191 21.3089 25.4751 21.7684C25.8006 23.5872 25.6396 25.4259 25.0802 27.0951C24.5069 28.7628 23.5382 30.2516 22.3364 31.4542C21.1351 32.6605 19.7073 33.5826 18.223 34.2059C16.7374 34.8319 15.198 35.158 13.7393 35.2463C13.0085 35.3068 12.2993 35.2593 11.6162 35.2217C10.9396 35.1256 10.2812 35.0595 9.66885 34.9012C7.19939 34.3123 5.38831 33.1674 4.20696 32.1547L4.23083 32.1626C2.94488 32.2236 1.95536 32.2703 1.28223 32.3019C0.954558 32.3166 0.704582 32.3277 0.531416 32.3356C0.36259 32.3419 0.281 32.3435 0.281 32.3435C0.281 32.3435 0.371705 32.3356 0.542701 32.3249C0.718037 32.3138 0.970188 32.2984 1.30176 32.2778C1.96969 32.2378 2.95053 32.1796 4.22606 32.1037L4.23952 32.1029L4.24993 32.1116C5.43431 33.1108 7.24062 34.2379 9.69315 34.8125C10.3016 34.9673 10.9552 35.0302 11.6262 35.1236C12.3037 35.158 13.0067 35.2031 13.7307 35.141C15.1754 35.0496 16.6988 34.7223 18.1679 34.0994C19.6357 33.4793 21.0466 32.5639 22.2327 31.3692C23.4188 30.1776 24.3741 28.7046 24.9387 27.0555C25.4899 25.4045 25.6466 23.5872 25.3245 21.7906C25.2698 21.3366 25.1188 20.8982 24.9982 20.4514C24.9465 20.2254 24.8415 20.0137 24.7595 19.7948C24.6696 19.5784 24.5933 19.3567 24.4917 19.1434C24.3819 18.9333 24.2721 18.7232 24.1618 18.5118L23.9948 18.1956L23.796 17.8941C23.6636 17.6926 23.5308 17.4908 23.3976 17.2886C23.2491 17.0955 23.0912 16.9075 22.9384 16.7163C21.7106 15.1971 20.0614 14.0241 18.2707 13.2512C16.4779 12.4807 14.5305 12.0929 12.6483 12.138C10.7651 12.1716 8.95666 12.5927 7.37603 13.2912C5.79193 13.9881 4.43524 14.9584 3.37238 16.0634C2.30604 17.1683 1.53612 18.4058 1.03398 19.6405C0.758394 20.2519 0.616042 20.8811 0.45416 21.4803C0.324828 22.087 0.251486 22.6814 0.23022 23.2552C0.138646 25.5608 0.816982 27.4604 1.53135 28.7889L1.63594 28.984L1.47753 28.8225L1.47277 28.8178L1.52831 28.8067C1.12643 29.952 0.817854 30.8321 0.607798 31.4313C0.50277 31.7281 0.422483 31.9545 0.366931 32.1112C0.312247 32.2628 0.281 32.3435 0.281 32.3435Z" fill="#263238"/>
</g>
</g>
</g>
</g>
</g>
</g>
</g>
</g>
</g>
</g>
</g>
</g>
</g>
</g>
</g>
</g>
<g id="Group_66">
<g id="Group_67">
<g id="Group_68">
<g id="Group_69">
<g id="Group_70">
<g id="Group_71">
<path id="Vector_13" d="M8.95346 21.3449H10.7624C10.7624 21.3449 10.7624 19.9602 12.3408 19.9353C13.1606 19.9222 13.5855 20.4122 13.7583 20.7869C13.9588 21.2227 13.898 21.7189 13.6294 22.123C13.3225 22.5844 12.6503 23.0035 11.4312 22.8076V26.5264H13.2197V24.3478C13.2197 24.3478 15.7282 23.7566 15.7282 21.2357C15.7282 18.8237 13.3564 18.2637 12.3408 18.2637C11.5644 18.2641 8.91917 18.435 8.95346 21.3449Z" fill="#FF725E"/>
</g>
</g>
</g>
</g>
<g id="Group_72">
<g id="Group_73">
<g id="Group_74">
<g id="Group_75">
<path id="Vector_14" d="M13.2432 27.3223H11.4282V28.868H13.2432V27.3223Z" fill="#FF725E"/>
</g>
</g>
</g>
</g>
</g>
</g>
</g>
</g>
</svg>
