<svg width="21" height="21" viewBox="0 0 21 21" fill="none" xmlns="http://www.w3.org/2000/svg">
<g id="bxs:up-arrow">
<path id="Vector" d="M17.9611 4.66682L2.96111 4.66682C2.80924 4.6673 2.66038 4.70918 2.53055 4.78797C2.40071 4.86676 2.29483 4.97946 2.22428 5.11395C2.15374 5.24844 2.12121 5.39962 2.13019 5.55122C2.13918 5.70283 2.18934 5.84911 2.27528 5.97432L9.77528 16.8077C10.0861 17.2568 10.8344 17.2568 11.1461 16.8077L18.6461 5.97432C18.7329 5.84937 18.7838 5.70302 18.7933 5.55116C18.8028 5.39931 18.7705 5.24776 18.6998 5.11298C18.6292 4.97821 18.523 4.86536 18.3928 4.7867C18.2626 4.70805 18.1133 4.66658 17.9611 4.66682Z" fill="#4A4949"/>
</g>
</svg>
